<?xml version="1.0" encoding="utf-8"?>
<!-- Generator: Adobe Illustrator 16.0.3, SVG Export Plug-In . SVG Version: 6.00 Build 0)  -->
<!DOCTYPE svg PUBLIC "-//W3C//DTD SVG 1.1//EN" "http://www.w3.org/Graphics/SVG/1.1/DTD/svg11.dtd">
<svg version="1.1" id="Isolation_Mode" xmlns="http://www.w3.org/2000/svg" xmlns:xlink="http://www.w3.org/1999/xlink" x="0px"
	 y="0px" width="645.318px" height="181.123px" viewBox="0 0 645.318 181.123" enable-background="new 0 0 645.318 181.123"
	 xml:space="preserve">
<path fill="#C133B1" d="M607.485,59.976h-9.387c-0.491-1.647-1.031-2.564-1.6-2.564h-7.27c-0.566,0-1.106,0.917-1.596,2.564h-14.262
	v0.002c-0.143,0-0.276-0.001-0.421-0.001c-0.003,0-0.005-0.001-0.007-0.001c0,0-0.003,0.001-0.005,0.001
	c-84.453-0.027-143.572-8.022-183.126-23.991C354.891,21.887,298.218,0,248.053,0S64.484,0,39.766,0
	C15.048,0,9.824,6.855,9.824,6.855C4.398,6.855,0,43.451,0,88.595s4.398,81.738,9.824,81.738v0.596c0,0,5.224,6.854,29.941,6.854
	c24.719,0,158.124,0,208.287,0s106.838-21.89,141.765-35.988c39.533-15.957,98.609-23.952,182.99-23.987
	c0.048,0.01,0.095,0.023,0.141,0.023c0.053,0,0.102-0.014,0.149-0.023c0.093,0,0.184-0.002,0.278-0.002v0.025h14.26
	c0.487,1.646,1.027,2.564,1.596,2.564h7.271c0.564,0,1.104-0.918,1.598-2.564h9.387c2.313,0,4.191-12.95,4.191-28.928
	C611.677,72.927,609.801,59.976,607.485,59.976z"/>
<path fill="#F3D6EF" d="M645.318,174.545c0-1.304-4.469-1.595-4.469-1.595c-3.005-1.074-5.243-4.182-8.997-4.182
	c-2.492,0-8.449,0.371-11.628,0.101c0,0-6.438-0.548-13.612-0.548c-3.866,0-5.263,0.062-5.263,0.062
	c-3.188,0.142-10.558-0.415-13.778-0.415c-5.688,0-10.304,0.816-10.304,1.824c0,0.354-0.914,1.771-3.946,2.764
	c0,0-3.807,1.313-3.807,2.725c0,3.416,10.599,5.845,29.897,5.845c5.225,0,16.029-0.646,16.029-0.646
	c3.187-0.191,9.124,0.646,12.479,0.646c3.754,0,7.17,0,8.609-1.203c0.344-0.284-2.676-1.696,0.41-2.502
	C636.944,177.418,645.318,176.252,645.318,174.545z"/>
</svg>
