<?xml version="1.0" encoding="utf-8"?>
<!-- Generator: Adobe Illustrator 16.0.3, SVG Export Plug-In . SVG Version: 6.00 Build 0)  -->
<!DOCTYPE svg PUBLIC "-//W3C//DTD SVG 1.1//EN" "http://www.w3.org/Graphics/SVG/1.1/DTD/svg11.dtd">
<svg version="1.1" id="Isolation_Mode" xmlns="http://www.w3.org/2000/svg" xmlns:xlink="http://www.w3.org/1999/xlink" x="0px"
	 y="0px" width="645.318px" height="181.123px" viewBox="0 0 645.318 181.123" enable-background="new 0 0 645.318 181.123"
	 xml:space="preserve">
<path fill="#C133B1" d="M607.485,59.976h-9.387c-0.491-1.647-1.031-2.564-1.598-2.564h-7.27c-0.566,0-1.106,0.917-1.596,2.564
	h-14.26v0.002c-0.143,0-0.278-0.001-0.421-0.001c-0.003,0-0.005-0.001-0.007-0.001c0,0-0.003,0.001-0.005,0.001
	c-84.453-0.027-143.572-8.022-183.126-23.991C354.891,21.887,298.216,0,248.053,0S64.484,0,39.766,0
	C15.048,0,9.824,6.855,9.824,6.855C4.398,6.855,0,43.451,0,88.595s4.398,81.738,9.824,81.738v0.595c0,0,5.224,6.855,29.941,6.855
	c24.719,0,158.124,0,208.287,0s106.838-21.889,141.765-35.988c39.533-15.957,98.609-23.952,182.99-23.988
	c0.048,0.011,0.095,0.024,0.141,0.024c0.052,0,0.1-0.014,0.149-0.024c0.093,0,0.184-0.001,0.278-0.001v0.025h14.26
	c0.489,1.647,1.029,2.564,1.596,2.564h7.27c0.566,0,1.106-0.917,1.598-2.564h9.387c2.313,0,4.191-12.95,4.191-28.928
	C611.677,72.927,609.799,59.976,607.485,59.976z"/>
<path fill="#F3D6EF" d="M614.404,134.726c0,3.816-3.094,6.909-6.908,6.909s-6.908-3.093-6.908-6.909
	c0-3.814,6.908-17.339,6.908-17.339S614.404,130.911,614.404,134.726z"/>
<path fill="#F3D6EF" d="M645.318,174.545c0-1.304-4.469-1.595-4.469-1.595c-3.005-1.074-5.243-4.182-8.997-4.182
	c-2.492,0-8.449,0.371-11.628,0.101c0,0-6.437-0.548-13.612-0.548c-3.866,0-5.263,0.062-5.263,0.062
	c-3.187,0.142-10.558-0.415-13.778-0.415c-5.69,0-10.304,0.816-10.304,1.824c0,0.354-0.914,1.772-3.946,2.764
	c0,0-3.807,1.313-3.807,2.725c0,3.416,10.599,5.843,29.899,5.843c5.223,0,16.029-0.646,16.029-0.646
	c3.185-0.192,9.124,0.646,12.479,0.646c3.754,0,7.17,0,8.611-1.203c0.343-0.285-2.676-1.698,0.41-2.502
	C636.944,177.418,645.318,176.252,645.318,174.545z"/>
</svg>
