<?xml version="1.0" encoding="utf-8"?>
<!-- Generator: Adobe Illustrator 16.0.3, SVG Export Plug-In . SVG Version: 6.00 Build 0)  -->
<!DOCTYPE svg PUBLIC "-//W3C//DTD SVG 1.1//EN" "http://www.w3.org/Graphics/SVG/1.1/DTD/svg11.dtd">
<svg version="1.1" id="Layer_1" xmlns="http://www.w3.org/2000/svg" xmlns:xlink="http://www.w3.org/1999/xlink" x="0px" y="0px"
	 width="476px" height="411px" viewBox="0 0 476 411" enable-background="new 0 0 476 411" xml:space="preserve">
<rect y="15" fill="#0B6EB8" width="476" height="396"/>
<rect x="8" y="23.123" fill="#CBDEEB" width="462" height="381.754"/>
<path fill="#FFFFFF" d="M469.5,314c0-47,0-290.877,0-290.877H290H187.5H8C8,23.123,8,267,8,314c0,69-5,86-5,86l471.5-10
	C474.5,390,469.5,384,469.5,314z"/>
<rect x="8" y="23.123" fill="#E0ADD9" width="462" height="90"/>
<g>
	<path fill="#FFFFFF" d="M161.065,86.31h-7.915V55.572h-10.135v-6.586h28.185v6.586h-10.135V86.31z"/>
	<path fill="#FFFFFF" d="M210.823,67.597c0,6.178-1.532,10.927-4.596,14.246c-3.063,3.319-7.455,4.979-13.173,4.979
		s-10.11-1.66-13.173-4.979s-4.595-8.084-4.595-14.297c0-6.212,1.536-10.956,4.608-14.233c3.072-3.276,7.476-4.915,13.212-4.915
		c5.735,0,10.123,1.651,13.161,4.953S210.823,61.401,210.823,67.597z M183.583,67.597c0,4.17,0.792,7.31,2.375,9.42
		c1.583,2.111,3.948,3.166,7.097,3.166c6.314,0,9.472-4.195,9.472-12.586c0-8.408-3.14-12.612-9.42-12.612
		c-3.149,0-5.523,1.06-7.123,3.178C184.382,60.282,183.583,63.427,183.583,67.597z"/>
	<path fill="#FFFFFF" d="M249.526,67.29c0,6.145-1.749,10.851-5.246,14.118c-3.498,3.268-8.549,4.902-15.152,4.902h-10.569V48.985
		h11.718c6.093,0,10.825,1.608,14.195,4.825S249.526,61.521,249.526,67.29z M241.306,67.495c0-8.017-3.541-12.025-10.62-12.025
		h-4.212v24.305h3.396C237.493,79.774,241.306,75.681,241.306,67.495z"/>
	<path fill="#FFFFFF" d="M280.111,86.31l-2.706-8.884h-13.607l-2.706,8.884h-8.527l13.174-37.478h9.676l13.224,37.478H280.111z
		 M275.516,70.788c-2.502-8.051-3.911-12.603-4.225-13.659c-0.315-1.055-0.541-1.889-0.677-2.502
		c-0.562,2.179-2.17,7.565-4.825,16.161H275.516z"/>
	<path fill="#FFFFFF" d="M304.952,64.354l7.787-15.369h8.527l-12.382,22.798V86.31h-7.863V72.039l-12.382-23.054h8.578
		L304.952,64.354z"/>
</g>
<path fill="#FFFFFF" d="M187.5,23.123"/>
<circle fill="#0B6EB8" cx="85.5" cy="68.123" r="17.5"/>
<circle fill="#0B6EB8" cx="377.5" cy="68.123" r="17.5"/>
<line fill="none" stroke="#F2E6F0" stroke-miterlimit="10" x1="8" y1="23.123" x2="470" y2="23.123"/>
<g>
	<path fill="#D0E3F0" d="M97,14c0-7.7-5.4-14-12-14S73,6.3,73,14v51c0,7.7,5.4,14,12,14s12-6.3,12-14V14z"/>
</g>
<g>
	<path fill="#D0E3F0" d="M389.25,14c0-7.7-5.4-14-12-14s-12,6.3-12,14v51c0,7.7,5.4,14,12,14s12-6.3,12-14V14z"/>
</g>
</svg>
