<?xml version="1.0" encoding="utf-8"?>
<!-- Generator: Adobe Illustrator 16.0.3, SVG Export Plug-In . SVG Version: 6.00 Build 0)  -->
<!DOCTYPE svg PUBLIC "-//W3C//DTD SVG 1.1//EN" "http://www.w3.org/Graphics/SVG/1.1/DTD/svg11.dtd">
<svg version="1.1" id="Layer_1" xmlns="http://www.w3.org/2000/svg" xmlns:xlink="http://www.w3.org/1999/xlink" x="0px" y="0px"
	 width="43px" height="112px" viewBox="0 0 43 112" enable-background="new 0 0 43 112" xml:space="preserve">
<g>
	<g>
		<polygon fill="#FFFFFF" points="43,43 7,43 7,0 35.826,0 43,7.173 		"/>
	</g>
	<polygon fill="#CCCCCC" points="35.826,7.174 43,7.174 35.826,0 	"/>
	<g>
		<path fill="#D9D9D9" d="M38,10v26H12V10H38 M39,9H11v28h28V9L39,9z"/>
	</g>
	<line fill="none" stroke="#D9D9D9" stroke-miterlimit="10" x1="11.874" y1="13" x2="38.873" y2="13"/>
	<line fill="none" stroke="#D9D9D9" stroke-miterlimit="10" x1="11.874" y1="17" x2="38.873" y2="17"/>
	<line fill="none" stroke="#D9D9D9" stroke-miterlimit="10" x1="11.874" y1="21" x2="38.873" y2="21"/>
	<line fill="none" stroke="#D9D9D9" stroke-miterlimit="10" x1="11.874" y1="25" x2="38.873" y2="25"/>
	<line fill="none" stroke="#D9D9D9" stroke-miterlimit="10" x1="11.874" y1="29" x2="38.873" y2="29"/>
	<line fill="none" stroke="#D9D9D9" stroke-miterlimit="10" x1="11.874" y1="33" x2="38.873" y2="33"/>
	<line fill="none" stroke="#D9D9D9" stroke-miterlimit="10" x1="33.426" y1="9" x2="33.426" y2="37"/>
	<line fill="none" stroke="#D9D9D9" stroke-miterlimit="10" x1="27.889" y1="9" x2="27.889" y2="37"/>
	<line fill="none" stroke="#D9D9D9" stroke-miterlimit="10" x1="22.354" y1="9" x2="22.354" y2="37"/>
	<line fill="none" stroke="#D9D9D9" stroke-miterlimit="10" x1="16.818" y1="9" x2="16.818" y2="37"/>
	<rect y="4" fill="#C133B1" width="25" height="12"/>
	<g>
		<path fill="#FFFFFF" d="M6.704,7.519c-0.57,0-1.011,0.214-1.323,0.642C5.068,8.589,4.912,9.186,4.912,9.95
			c0,1.592,0.597,2.388,1.792,2.388c0.501,0,1.108-0.125,1.821-0.376v1.27c-0.586,0.244-1.24,0.366-1.963,0.366
			c-1.039,0-1.833-0.314-2.383-0.945c-0.55-0.629-0.825-1.533-0.825-2.712c0-0.742,0.135-1.393,0.405-1.95
			c0.27-0.559,0.658-0.986,1.165-1.285c0.506-0.297,1.1-0.446,1.78-0.446c0.693,0,1.39,0.168,2.09,0.503l-0.488,1.23
			C8.038,7.865,7.77,7.755,7.5,7.66S6.964,7.519,6.704,7.519z"/>
		<path fill="#FFFFFF" d="M14.257,11.518c0,0.645-0.232,1.152-0.696,1.523s-1.109,0.557-1.936,0.557
			c-0.762,0-1.436-0.144-2.021-0.43v-1.406c0.482,0.215,0.89,0.366,1.223,0.454s0.639,0.132,0.916,0.132
			c0.332,0,0.587-0.063,0.764-0.19s0.266-0.315,0.266-0.566c0-0.14-0.039-0.265-0.117-0.374c-0.078-0.108-0.193-0.214-0.344-0.314
			s-0.46-0.262-0.925-0.483c-0.436-0.205-0.763-0.402-0.981-0.591S10.013,9.42,9.882,9.169S9.687,8.625,9.687,8.29
			c0-0.632,0.214-1.128,0.642-1.489s1.02-0.542,1.775-0.542c0.371,0,0.725,0.044,1.062,0.132s0.689,0.212,1.057,0.371l-0.488,1.177
			c-0.381-0.156-0.696-0.266-0.945-0.327s-0.494-0.093-0.735-0.093c-0.287,0-0.506,0.066-0.659,0.2s-0.229,0.308-0.229,0.522
			c0,0.134,0.031,0.25,0.093,0.349c0.062,0.1,0.16,0.195,0.295,0.289c0.135,0.092,0.455,0.259,0.959,0.5
			c0.667,0.319,1.125,0.639,1.372,0.959C14.134,10.659,14.257,11.052,14.257,11.518z"/>
		<path fill="#FFFFFF" d="M19.624,6.361h1.528L18.725,13.5h-1.65l-2.422-7.139h1.528l1.343,4.248
			c0.075,0.251,0.152,0.543,0.232,0.877c0.08,0.333,0.129,0.565,0.149,0.695c0.036-0.3,0.158-0.823,0.366-1.572L19.624,6.361z"/>
	</g>
</g>
<g>
	<g>
		<polygon fill="#FFFFFF" points="43,112 7,112 7,69 35.826,69 43,76.173 		"/>
	</g>
	<polygon fill="#CCCCCC" points="35.826,76.174 43,76.174 35.826,69 	"/>
	<rect y="73" fill="#C133B1" width="25" height="12"/>
	<g>
		<path fill="#FFFFFF" d="M8.533,77.588c0,0.769-0.24,1.355-0.72,1.763s-1.163,0.61-2.048,0.61H5.115V82.5H3.602v-7.139h2.28
			c0.866,0,1.524,0.187,1.975,0.559C8.308,76.293,8.533,76.849,8.533,77.588z M5.115,78.721h0.498c0.465,0,0.814-0.092,1.045-0.275
			c0.231-0.185,0.347-0.452,0.347-0.804c0-0.354-0.097-0.617-0.291-0.786s-0.497-0.254-0.911-0.254H5.115V78.721z"/>
		<path fill="#FFFFFF" d="M15.554,78.862c0,1.175-0.334,2.075-1.003,2.7S12.916,82.5,11.652,82.5H9.631v-7.139h2.241
			c1.166,0,2.07,0.308,2.715,0.923S15.554,77.759,15.554,78.862z M13.981,78.901c0-1.533-0.677-2.3-2.031-2.3h-0.806v4.648h0.649
			C13.252,81.25,13.981,80.467,13.981,78.901z"/>
		<path fill="#FFFFFF" d="M18.272,82.5h-1.489v-7.139h4.092v1.24h-2.603v1.841h2.422v1.235h-2.422V82.5z"/>
	</g>
</g>
<g>
	<path id="path4463" fill="#C133B1" d="M19.179,96.889c0.812-1.594,1.736-3.388,2.474-5.188l0,0l0.293-0.711
		c-0.965-3.673-1.544-6.621-1.026-8.526l0,0c0.139-0.497,0.714-0.799,1.33-0.799l0,0l0.374,0.006h0.069
		c0.843-0.014,1.239,1.058,1.285,1.475l0,0c0.074,0.694-0.247,1.869-0.247,1.869l0,0c0-0.475,0.018-1.24-0.281-1.902l0,0
		c-0.348-0.765-0.682-1.223-0.98-1.294l0,0c-0.15,0.1-0.296,0.308-0.346,0.709l0,0c-0.104,0.562-0.136,1.272-0.136,1.637l0,0
		c0,1.293,0.254,2.999,0.754,4.757l0,0c0.095-0.272,0.179-0.534,0.244-0.779l0,0c0.103-0.387,0.754-2.947,0.754-2.947l0,0
		c0,0-0.163,3.408-0.394,4.44l0,0c-0.05,0.217-0.104,0.433-0.16,0.653l0,0c0.824,2.304,2.152,4.359,3.738,5.84l0,0
		c0.625,0.584,1.413,1.055,2.16,1.484l0,0c1.632-0.233,3.134-0.344,4.387-0.33l0,0c1.661,0.021,2.882,0.268,3.376,0.755l0,0
		c0.242,0.235,0.341,0.522,0.37,0.842l0,0c0.008,0.125-0.053,0.417-0.071,0.491l0,0c0.019-0.089,0.019-0.526-1.316-0.952l0,0
		c-1.05-0.336-3.018-0.325-5.377-0.074l0,0c2.729,1.336,5.389,1.999,6.231,1.601l0,0c0.206-0.1,0.456-0.441,0.456-0.441l0,0
		c0,0-0.148,0.674-0.256,0.843l0,0c-0.135,0.184-0.403,0.381-0.656,0.449l0,0c-1.331,0.354-4.795-0.467-7.816-2.192l0,0
		c-3.373,0.497-7.08,1.415-10.05,2.389l0,0c-2.92,5.115-5.114,7.466-6.9,6.572l0,0l-0.656-0.33
		c-0.266-0.152-0.308-0.524-0.245-0.827l0,0c0.208-1.018,1.484-2.553,4.05-4.083l0,0c0.276-0.169,1.505-0.818,1.505-0.818l0,0
		c0,0-0.911,0.882-1.123,1.055l0,0c-2.048,1.678-3.56,3.788-3.521,4.606l0,0l0.007,0.071
		C13.217,106.989,15.826,103.449,19.179,96.889 M20.241,97.431c-0.559,1.057-1.106,2.034-1.612,2.933l0,0
		c2.796-1.173,5.805-1.922,8.668-2.455l0,0c-0.385-0.265-0.758-0.547-1.109-0.845l0,0c-1.578-1.334-2.779-3.001-3.651-4.754l0,0
		C21.982,93.799,21.325,95.382,20.241,97.431"/>
</g>
</svg>
