<?xml version="1.0" encoding="utf-8"?>
<!-- Generator: Adobe Illustrator 16.0.3, SVG Export Plug-In . SVG Version: 6.00 Build 0)  -->
<!DOCTYPE svg PUBLIC "-//W3C//DTD SVG 1.1//EN" "http://www.w3.org/Graphics/SVG/1.1/DTD/svg11.dtd">
<svg version="1.1" id="Layer_1" xmlns="http://www.w3.org/2000/svg" xmlns:xlink="http://www.w3.org/1999/xlink" x="0px" y="0px"
	 width="201.11px" height="180.362px" viewBox="0 17.363 201.11 180.362" enable-background="new 0 17.363 201.11 180.362"
	 xml:space="preserve">
<rect x="0" y="0" fill="none" width="309.334" height="197.725"/>
<rect x="0" y="0" fill="none" width="309.334" height="197.725"/>
<path fill="#E6EFF7" d="M4.528,197.857c0,0,1.472-11.332,13.728-17.213c12.255-5.883,51.475-23.043,51.475-23.043l3.186-12.988
	h3.433c0,0,1.225-12.256,1.225-14.706c0-2.452-3.678-6.619-5.638-11.766s-2.205-11.275-2.205-11.275s-3.188-0.736-3.433-4.412
	c-0.245-3.678-3.43-16.668-2.205-17.894c1.224-1.222,3.674,0,3.674,0s-0.979-13.974-0.979-25.003S72.425,36.026,88.113,29.9
	c15.688-6.13,34.069-7.6,34.069-7.6s-4.898,4.902-2.695,7.354c2.205,2.45,20.593,9.558,20.593,29.165
	c0,19.61-1.96,25.493-1.96,25.493s2.693-0.979,3.674,0.247c0.98,1.228-1.961,13.233-2.452,16.421
	c-0.489,3.188-2.94,4.902-2.94,4.902s-1.471,7.846-2.941,11.766s-4.902,10.785-4.902,10.785l0.736,16.421h3.188l2.695,12.744
	c0,0,23.533,10.542,35.788,15.2c12.255,4.657,28.187,10.897,30.146,25.056"/>
<rect x="0" y="0" fill="none" width="309.334" height="197.725"/>
<ellipse fill="#84B7D9" cx="138.763" cy="186.743" rx="9.128" ry="8.983"/>
<rect x="0" y="0" fill="none" width="309.334" height="197.725"/>
<path fill="#3383B9" d="M138.064,189.765c-0.219,0-0.439-0.051-0.646-0.159c-0.683-0.357-0.945-1.202-0.587-1.884
	c0.066-0.127,6.679-12.788,6.942-18.832c0.254-5.842-3.01-10.294-9.189-12.538c-0.725-0.264-1.1-1.062-0.835-1.787
	c0.263-0.725,1.063-1.1,1.787-0.836c7.312,2.655,11.332,8.227,11.024,15.283c-0.292,6.664-6.976,19.466-7.26,20.007
	C139.051,189.494,138.565,189.765,138.064,189.765z"/>
<rect x="0" y="0" fill="none" width="309.334" height="197.725"/>
<path fill="#3383B9" d="M64.015,180.783c-0.556,0-1.082-0.336-1.298-0.885c-3.964-10.06,0.776-24.04,5.676-26.139
	c0.708-0.302,1.528,0.025,1.832,0.732c0.303,0.708-0.024,1.527-0.732,1.831c-3.045,1.305-7.774,13.428-4.18,22.553
	c0.282,0.716-0.068,1.525-0.787,1.809C64.358,180.751,64.185,180.783,64.015,180.783z"/>
<rect x="0" y="0" fill="none" width="309.334" height="197.725"/>
<path fill="#3383B9" d="M53.153,200.883c-0.131-0.364-3.187-9.033,0.52-15.849c1.931-3.552,5.305-5.908,10.027-7.007
	c5.213-1.211,9.669-0.452,13.248,2.252c7.768,5.871,8.47,18.779,8.496,19.326l-2.786,0.134c-0.007-0.12-0.674-12.162-7.397-17.237
	c-2.888-2.182-6.564-2.771-10.929-1.757c-3.908,0.908-6.667,2.798-8.202,5.609c-3.111,5.705-0.379,13.505-0.352,13.583
	L53.153,200.883z"/>
<rect x="0" y="0" fill="none" width="309.334" height="197.725"/>
<path fill="#3383B9" d="M55.753,201.18c-0.113-0.236-2.753-5.857-0.309-10.95c1.592-3.316,4.958-5.594,10.008-6.768
	c5.642-1.312,10.083-0.629,13.199,2.032c5.414,4.618,4.854,13.438,4.828,13.812l-0.927-0.065c0.006-0.087,0.549-8.729-4.507-13.041
	c-2.879-2.455-7.046-3.071-12.383-1.83c-4.761,1.105-7.915,3.214-9.379,6.264c-2.255,4.694,0.281,10.092,0.308,10.146L55.753,201.18
	z"/>
<rect x="0" y="0" fill="none" width="309.334" height="197.725"/>
<ellipse fill="#9ECAE8" cx="138.763" cy="186.743" rx="4.845" ry="4.768"/>
<path fill="#FFFFFF" d="M138.763,191.976c-2.928,0-5.31-2.348-5.31-5.231c0-2.887,2.382-5.233,5.31-5.233s5.31,2.348,5.31,5.233
	C144.073,189.628,141.691,191.976,138.763,191.976z"/>
<path fill="#FFFFFF" d="M138.763,182.441c-2.415,0-4.38,1.931-4.38,4.304c0,2.371,1.965,4.303,4.38,4.303s4.38-1.932,4.38-4.303
	C143.143,184.371,141.178,182.441,138.763,182.441z"/>
<rect x="0" y="0" fill="none" width="309.334" height="197.725"/>
<rect x="0" y="0" fill="none" width="309.334" height="197.725"/>
</svg>
