<?xml version="1.0" encoding="utf-8"?>
<!-- Generator: Adobe Illustrator 16.0.3, SVG Export Plug-In . SVG Version: 6.00 Build 0)  -->
<!DOCTYPE svg PUBLIC "-//W3C//DTD SVG 1.1//EN" "http://www.w3.org/Graphics/SVG/1.1/DTD/svg11.dtd">
<svg version="1.1" id="Layer_1" xmlns="http://www.w3.org/2000/svg" xmlns:xlink="http://www.w3.org/1999/xlink" x="0px" y="0px"
	 width="309.334px" height="197.725px" viewBox="0 0 309.334 197.725" enable-background="new 0 0 309.334 197.725"
	 xml:space="preserve">
<g>
	<defs>
		<rect id="SVGID_1_" width="309.334" height="197.725"/>
	</defs>
	<clipPath id="SVGID_2_">
		<use xlink:href="#SVGID_1_"  overflow="visible"/>
	</clipPath>
	<path clip-path="url(#SVGID_2_)" fill="#B6D6F0" d="M247.234,175.053c-11.371-4.322-25.703-6.604-25.703-6.604l-2.501-14.322
		h-7.957l-0.42-12.434c19.108-1.477,25.863-6.969,25.863-6.969s-6,1.334-9-9.333s2.666-18.5,2.666-43.833
		c0-17.436-11.369-27.293-23.135-31.744c-0.022-0.022-0.053-0.048-0.072-0.069c-1.368-1.521-7.421-3.446-15.634-2.854
		c-14.348,0.003-38.338,9.339-38.338,34.668c0,25.333,5.666,33.166,2.666,43.833s-9,9.333-9,9.333s6.805,5.536,26.087,6.987
		c-0.336,5.435-0.805,12.189-0.805,12.189h-8.185l-2.955,14.55c0,0-28.887,8.422-40.257,13.879
		c-11.37,5.457-12.735,15.97-12.735,15.97l167.385-0.002C273.385,185.165,258.604,179.374,247.234,175.053z"/>
	<path clip-path="url(#SVGID_2_)" fill="#E6EFF7" d="M4.528,197.857c0,0,1.471-11.332,13.727-17.213
		c12.255-5.883,51.475-23.043,51.475-23.043l3.185-12.988h3.433c0,0,1.225-12.256,1.225-14.706c0-2.453-3.678-6.62-5.638-11.766
		c-1.96-5.147-2.205-11.275-2.205-11.275s-3.188-0.737-3.433-4.413c-0.245-3.677-3.43-16.668-2.205-17.893
		c1.224-1.222,3.674,0,3.674,0s-0.979-13.974-0.979-25.003S72.425,36.026,88.113,29.9c15.687-6.13,34.069-7.6,34.069-7.6
		s-4.899,4.902-2.695,7.354c2.205,2.45,20.592,9.557,20.592,29.165c0,19.61-1.96,25.493-1.96,25.493s2.694-0.98,3.674,0.247
		c0.981,1.227-1.961,13.233-2.452,16.421c-0.489,3.188-2.94,4.902-2.94,4.902s-1.471,7.846-2.942,11.766
		c-1.47,3.92-4.902,10.785-4.902,10.785l0.736,16.421h3.188l2.695,12.744c0,0,23.533,10.542,35.788,15.2
		c12.255,4.657,28.187,10.898,30.147,25.056"/>
	<ellipse clip-path="url(#SVGID_2_)" fill="#84B7D9" cx="138.763" cy="186.743" rx="9.128" ry="8.983"/>
	<path clip-path="url(#SVGID_2_)" fill="#3383B9" d="M138.064,189.765c-0.219,0-0.44-0.051-0.647-0.159
		c-0.682-0.358-0.945-1.202-0.587-1.884c0.067-0.127,6.679-12.788,6.943-18.832c0.254-5.842-3.01-10.294-9.19-12.538
		c-0.724-0.264-1.099-1.063-0.835-1.787c0.263-0.725,1.064-1.1,1.787-0.836c7.313,2.655,11.332,8.226,11.025,15.283
		c-0.292,6.664-6.976,19.466-7.26,20.007C139.051,189.494,138.565,189.765,138.064,189.765z"/>
	<path clip-path="url(#SVGID_2_)" fill="#3383B9" d="M64.015,180.783c-0.556,0-1.082-0.335-1.298-0.884
		c-3.964-10.06,0.776-24.04,5.676-26.139c0.708-0.302,1.528,0.025,1.832,0.732c0.303,0.708-0.025,1.528-0.733,1.832
		c-3.044,1.304-7.774,13.427-4.179,22.552c0.282,0.716-0.069,1.526-0.787,1.809C64.358,180.751,64.185,180.783,64.015,180.783z"/>
	<path clip-path="url(#SVGID_2_)" fill="#3383B9" d="M53.153,200.883c-0.131-0.364-3.187-9.033,0.519-15.849
		c1.931-3.551,5.305-5.908,10.027-7.006c5.213-1.211,9.669-0.453,13.249,2.252c7.767,5.871,8.469,18.779,8.496,19.326l-2.787,0.134
		c-0.006-0.121-0.673-12.163-7.397-17.238c-2.888-2.181-6.564-2.771-10.929-1.757c-3.908,0.909-6.667,2.798-8.202,5.61
		c-3.111,5.705-0.379,13.505-0.351,13.583L53.153,200.883z"/>
	<path clip-path="url(#SVGID_2_)" fill="#3383B9" d="M55.753,201.18c-0.113-0.236-2.753-5.857-0.308-10.95
		c1.591-3.317,4.958-5.594,10.007-6.768c5.642-1.312,10.083-0.629,13.2,2.032c5.414,4.619,4.854,13.438,4.828,13.812l-0.927-0.065
		c0.006-0.087,0.549-8.729-4.507-13.041c-2.879-2.456-7.046-3.072-12.383-1.831c-4.76,1.106-7.915,3.214-9.379,6.264
		c-2.254,4.694,0.282,10.092,0.308,10.146L55.753,201.18z"/>
	<g clip-path="url(#SVGID_2_)">
		<ellipse fill="#9ECAE8" cx="138.763" cy="186.743" rx="4.845" ry="4.768"/>
		<path fill="#FFFFFF" d="M138.763,191.976c-2.928,0-5.31-2.348-5.31-5.232c0-2.886,2.382-5.233,5.31-5.233s5.31,2.348,5.31,5.233
			C144.073,189.628,141.691,191.976,138.763,191.976z M138.763,182.441c-2.415,0-4.38,1.93-4.38,4.303
			c0,2.372,1.965,4.303,4.38,4.303s4.38-1.931,4.38-4.303C143.143,184.371,141.178,182.441,138.763,182.441z"/>
	</g>
	<path clip-path="url(#SVGID_2_)" fill="#E6EFF7" d="M191.187,65.225c-15.153,0-22.664,4-22.664,4L161.2,44.391
		c0,0,7.799-9.832,30.149-9.832s30.149,9.832,30.149,9.832l-7.322,24.834c0,0-7.511-4-22.664-4"/>
	<polygon clip-path="url(#SVGID_2_)" fill="#C133B1" points="201.004,48.789 194.939,48.789 194.939,42.725 188.734,42.725 
		188.734,48.789 182.67,48.789 182.67,54.995 188.734,54.995 188.734,61.059 194.939,61.059 194.939,54.995 201.004,54.995 	"/>
</g>
</svg>
