<?xml version="1.0" encoding="utf-8"?>
<!-- Generator: Adobe Illustrator 16.0.3, SVG Export Plug-In . SVG Version: 6.00 Build 0)  -->
<!DOCTYPE svg PUBLIC "-//W3C//DTD SVG 1.1//EN" "http://www.w3.org/Graphics/SVG/1.1/DTD/svg11.dtd">
<svg version="1.1" id="Layer_1" xmlns="http://www.w3.org/2000/svg" xmlns:xlink="http://www.w3.org/1999/xlink" x="0px" y="0px"
	 width="237.195px" height="211.93px" viewBox="0 0 237.195 211.93" enable-background="new 0 0 237.195 211.93"
	 xml:space="preserve">
<g>
	<defs>
		<rect id="SVGID_1_" x="0" y="0" width="237.195" height="212.68"/>
	</defs>
	<clipPath id="SVGID_2_">
		<use xlink:href="#SVGID_1_"  overflow="visible"/>
	</clipPath>
	<rect x="0" y="0" clip-path="url(#SVGID_2_)" fill="#A5C4D9" width="237.195" height="211.93"/>
	<path clip-path="url(#SVGID_2_)" fill="#FFFFFF" d="M188.99,182.917c-14.068-5.348-31.801-8.172-31.801-8.172l-3.095-17.717h-9.845
		l-0.52-15.386c23.641-1.829,31.998-8.623,31.998-8.623s-7.423,1.649-11.136-11.548c-3.712-13.198,3.299-22.889,3.299-54.232
		c0-30.08-15.663-36.441-28.416-36.759c-0.027-0.026-3.816-6.185-19.639-6.13c-17.753,0.004-47.434,11.554-47.434,42.893
		c0,31.342,7.01,41.034,3.299,54.232c-3.712,13.197-11.136,11.547-11.136,11.547s8.419,6.85,32.276,8.644
		c-0.416,6.726-0.997,15.08-0.997,15.08H85.716l-3.655,18.004c0,0-35.741,10.421-49.809,17.172
		C18.185,198.674,16.5,211.68,16.5,211.68l207.098-0.003C221.345,195.428,203.057,188.263,188.99,182.917z"/>
	<ellipse clip-path="url(#SVGID_2_)" fill="#84B7D9" cx="161.438" cy="206.566" rx="9.815" ry="9.66"/>
	
		<path clip-path="url(#SVGID_2_)" fill="none" stroke="#3383B9" stroke-width="3" stroke-linecap="round" stroke-miterlimit="10" d="
		M160.687,208.315c0,0,7.334-13.968,7.637-20.882c0.318-7.321-4-12.466-10.869-14.959"/>
	
		<path clip-path="url(#SVGID_2_)" fill="none" stroke="#3383B9" stroke-width="3" stroke-linecap="round" stroke-miterlimit="10" d="
		M82.356,172.475c-4.363,1.869-9.353,15.896-5.299,26.18"/>
	<path clip-path="url(#SVGID_2_)" fill="none" stroke="#3383B9" stroke-width="3" stroke-miterlimit="10" d="M66.789,221.263
		c0,0-6.729-18.655,10.271-22.608c20.277-4.717,21.545,21.815,21.545,21.815"/>
	<path clip-path="url(#SVGID_2_)" fill="none" stroke="#3383B9" stroke-miterlimit="10" d="M68.624,221.874
		c0,0-6.903-14.396,10.092-18.352c20.279-4.717,18.774,16.517,18.774,16.517"/>
	
		<ellipse clip-path="url(#SVGID_2_)" fill="#9ECAE8" stroke="#FFFFFF" stroke-miterlimit="10" cx="161.438" cy="206.566" rx="5.21" ry="5.127"/>
</g>
</svg>
