<?xml version="1.0" encoding="utf-8"?>
<!-- Generator: Adobe Illustrator 16.0.3, SVG Export Plug-In . SVG Version: 6.00 Build 0)  -->
<!DOCTYPE svg PUBLIC "-//W3C//DTD SVG 1.1//EN" "http://www.w3.org/Graphics/SVG/1.1/DTD/svg11.dtd">
<svg version="1.1" id="Layer_1" xmlns="http://www.w3.org/2000/svg" xmlns:xlink="http://www.w3.org/1999/xlink" x="0px" y="0px"
	 width="175.456px" height="228.375px" viewBox="0 0 175.456 228.375" enable-background="new 0 0 175.456 228.375"
	 xml:space="preserve">
<g>
	<path fill="#3383B9" d="M66.112,152.346l9.861-18.534c3.574-6.705,1.122-15.059-5.451-18.562
		c-6.57-3.498-14.875-0.874-18.448,5.838l-9.863,18.528L66.112,152.346z"/>
	<path fill="#C133B1" d="M41.239,141.443l-9.864,18.534c-3.576,6.711-1.122,15.062,5.452,18.562
		c6.575,3.503,14.875,0.876,18.45-5.834l9.863-18.531L41.239,141.443z"/>
</g>
<g>
	<path fill="#3383B9" d="M109.305,33.586l20.226,5.625c7.317,2.037,14.947-2.161,16.947-9.337c1.994-7.171-2.365-14.712-9.689-16.75
		L116.566,7.5L109.305,33.586z"/>
	<path fill="#C133B1" d="M114.573,6.944L94.348,1.319c-7.326-2.04-14.95,2.161-16.946,9.334c-1.998,7.176,2.36,14.712,9.685,16.754
		l20.225,5.625L114.573,6.944z"/>
</g>
<g>
	<path fill="#3383B9" d="M168.068,66.876l-3.025-20.773c-1.094-7.519-8.017-12.8-15.388-11.729
		c-7.366,1.072-12.504,8.103-11.407,15.629l3.024,20.771L168.068,66.876z"/>
	<path fill="#C133B1" d="M141.57,72.822l3.027,20.774c1.094,7.525,8.017,12.8,15.384,11.729c7.373-1.071,12.505-8.104,11.412-15.627
		l-3.025-20.774L141.57,72.822z"/>
</g>
<g>
	<path fill="#3383B9" d="M113.232,103.41l-20.845,2.48c-7.546,0.894-13.007,7.674-12.13,15.074
		c0.875,7.392,7.772,12.711,15.323,11.815l20.844-2.479L113.232,103.41z"/>
	<path fill="#C133B1" d="M118.478,130.057l20.848-2.479c7.551-0.895,13.009-7.677,12.13-15.071
		c-0.877-7.397-7.771-12.713-15.321-11.819l-20.847,2.479L118.478,130.057z"/>
</g>
<g>
	<circle fill="#C0DBED" cx="53.084" cy="26.084" r="21.893"/>
	<line fill="none" stroke="#FFFFFF" stroke-width="2" stroke-miterlimit="10" x1="31.276" y1="24.157" x2="74.893" y2="28.011"/>
</g>
<g>
	<path fill="#E0C3DD" d="M32.79,223.465c-11.458,3.855-23.872-2.312-27.727-13.771c-3.855-11.46,2.312-23.876,13.771-27.728
		c11.461-3.853,23.876,2.311,27.729,13.774C50.419,207.198,44.252,219.614,32.79,223.465z"/>
	<line fill="none" stroke="#FFFFFF" stroke-width="2" stroke-miterlimit="10" x1="18.834" y1="181.966" x2="32.79" y2="223.465"/>
</g>
</svg>
