<?xml version="1.0" encoding="utf-8"?>
<!-- Generator: Adobe Illustrator 16.0.3, SVG Export Plug-In . SVG Version: 6.00 Build 0)  -->
<!DOCTYPE svg PUBLIC "-//W3C//DTD SVG 1.1//EN" "http://www.w3.org/Graphics/SVG/1.1/DTD/svg11.dtd">
<svg version="1.1" id="Isolation_Mode" xmlns="http://www.w3.org/2000/svg" xmlns:xlink="http://www.w3.org/1999/xlink" x="0px"
	 y="0px" width="48.029px" height="293.855px" viewBox="0 0 48.029 293.855" enable-background="new 0 0 48.029 293.855"
	 xml:space="preserve">
<g>
	<path fill="#86BADB" d="M1.87,113.261c1.654,5.168,7.216,6.577,22.065,6.577s20.411-1.409,22.065-6.577H1.87z"/>
	<g>
		<path fill="#3383B9" d="M48.029,108.771c0,0.917-0.9,1.668-2,1.668H2c-1.1,0-2-0.751-2-1.668s0.9-1.668,2-1.668h44.029
			C47.129,107.103,48.029,107.854,48.029,108.771z"/>
	</g>
	<path fill="#86BADB" d="M23.936,89.857c-11.188,0-20.477,4.371-22.322,14.715h44.624C44.348,94.53,35.085,89.857,23.936,89.857z
		 M18.363,93.611c-0.53,0-0.96-0.29-0.96-0.647s0.43-0.647,0.96-0.647s0.96,0.29,0.96,0.647S18.894,93.611,18.363,93.611z
		 M23.391,93.189c-0.624,0-1.13-0.342-1.13-0.763s0.506-0.763,1.13-0.763s1.13,0.342,1.13,0.763S24.015,93.189,23.391,93.189z
		 M25.933,95.957c-0.53,0-0.961-0.291-0.961-0.648s0.431-0.648,0.961-0.648s0.961,0.291,0.961,0.648S26.463,95.957,25.933,95.957z
		 M29.765,93.729c-0.468,0-0.848-0.257-0.848-0.572s0.38-0.572,0.848-0.572s0.848,0.257,0.848,0.572S30.232,93.729,29.765,93.729z"
		/>
</g>
<g>
	<ellipse fill="#86BADB" cx="22.149" cy="182.361" rx="19.159" ry="3.267"/>
	<path fill="#B3D3E8" d="M22.149,185.628c-10.581,0-19.159-1.463-19.159-3.267l5.234,27.125c0,2.219,6.234,4.02,13.925,4.02
		s13.925-1.801,13.925-4.02l5.234-27.125C41.308,184.165,32.73,185.628,22.149,185.628z"/>
	<g>
		<path fill="#3383B9" d="M43.29,163.136c-1.646-0.815-2.194-0.529-2.194-0.529l-3.353,6.77c0,0,0.03,0.093,0.147,0.248
			c0.022-0.043,0.056-0.097,0.076-0.138l3.495,1.731c-0.022,0.044-0.045,0.098-0.067,0.145c0.199,0,0.293-0.033,0.293-0.033
			l3.353-6.77C45.04,164.561,44.935,163.951,43.29,163.136z"/>
		<path fill="#3383B9" d="M37.89,169.624c-0.966,1.866-3.702,5.493-5.635,6.992c-1.914,1.486-3.261,3.267-6.104,8.939
			c5.271-0.191,9.724-0.753,12.414-1.516c0.515-1.577,0.674-2.732,0.685-3.958c0.022-2.441,1.246-6.813,2.144-8.718
			c-0.329,0-0.945-0.088-1.901-0.562C38.53,170.324,38.087,169.885,37.89,169.624z"/>
	</g>
	<path fill="#3383B9" d="M39.493,170.801c0.956,0.474,1.572,0.562,1.901,0.562c0.022-0.047,0.045-0.101,0.067-0.145l-3.495-1.731
		c-0.021,0.041-0.054,0.095-0.076,0.138C38.087,169.885,38.53,170.324,39.493,170.801z"/>
	<path fill="none" stroke="#86BADB" stroke-linecap="round" stroke-miterlimit="10" d="M39.314,189.79
		c-2.104,1.28-8.983,2.22-17.165,2.22s-15.062-0.94-17.165-2.22"/>
	<path fill="none" stroke="#86BADB" stroke-linecap="round" stroke-miterlimit="10" d="M5.598,192.974
		c2.103,1.22,8.711,2.112,16.551,2.112s14.448-0.892,16.551-2.112"/>
	<path fill="none" stroke="#86BADB" stroke-linecap="round" stroke-miterlimit="10" d="M39.928,186.606
		c-2.102,1.34-9.254,2.329-17.779,2.329s-15.678-0.988-17.779-2.329"/>
</g>
<g>
	<g>
		<path fill="#3382B9" d="M17.794,13.468c0,0,2.649-1.512,2.766-3.929c0.101-2.117-4.028-2.124-4.028-5.374
			C16.532,0.916,21.597,0,21.597,0s-2.91,0.764-2.91,4.165c0,3.399,3.146,2.728,3.146,5.448S17.794,13.468,17.794,13.468z"/>
		<path fill="#3382B9" d="M21.017,12.43c0,0,1.901-1.285,1.984-3.343c0.072-1.802-2.889-1.81-2.889-4.574
			c0-2.766,3.633-3.544,3.633-3.544s-2.089,0.65-2.089,3.544s2.259,2.322,2.259,4.638C23.916,11.465,21.017,12.43,21.017,12.43z"/>
		<path fill="#86B9DA" d="M40.659,16.102c-0.789,0-1.514,0.011-2.198,0.03c-0.391-0.744-1.062-1.25-2.232-1.25
			c-7.744,0-27.219,0-33.396,0c-2.803,0-2.569,3.164-2.569,5.31c0,7.765,3.791,15.88,9.942,20.129v2.006c0,0.55,0.45,1,1,1h17.093
			c0.55,0,1-0.45,1-1v-2.175c2.945-2.105,5.332-5.102,7.001-8.512c1.401-0.001,3.01-0.091,4.97-0.635
			c4.26-1.182,6.504-4.853,6.504-7.41C47.772,19.254,44.78,16.102,40.659,16.102z M23.997,19.058c-0.483,0-0.878-0.394-0.878-0.876
			s0.395-0.876,0.878-0.876s0.878,0.394,0.878,0.876S24.479,19.058,23.997,19.058z M32.93,19.058h-6.216c-0.55,0-1-0.394-1-0.876
			s0.45-0.876,1-0.876h6.216c0.55,0,1,0.394,1,0.876S33.48,19.058,32.93,19.058z M39.944,28.021
			c-0.864,0.293-1.653,0.457-2.366,0.532c0.868-2.54,1.353-5.216,1.408-7.86c0.503-0.013,1.055-0.021,1.673-0.021
			c1.877,0,2.542,1.574,2.542,2.923C43.201,24.626,42.803,27.053,39.944,28.021z"/>
	</g>
</g>
<g>
	<g>
		<path fill="#B2D2E7" d="M24.015,256.3c-7.07,0-12.822,5.753-12.822,12.823c0,7.069,5.752,12.821,12.822,12.821
			s12.822-5.752,12.822-12.821C36.837,262.053,31.085,256.3,24.015,256.3z"/>
		<path fill="#B2D2E7" d="M24.015,248.578c-11.346,0-20.545,9.199-20.545,20.546c0,11.345,9.199,20.544,20.545,20.544
			c11.347,0,20.545-9.199,20.545-20.544C44.56,257.777,35.361,248.578,24.015,248.578z M24.015,282.945
			c-7.622,0-13.822-6.2-13.822-13.821c0-7.622,6.2-13.823,13.822-13.823s13.822,6.201,13.822,13.823
			C37.837,276.745,31.637,282.945,24.015,282.945z"/>
	</g>
	<g>
		<path fill="#3382B9" d="M22.146,266.72c0-6.991-2.575-7.343-2.575-7.343v18.021c-0.227,0.342-0.368,0.77-0.368,1.239v13.217
			c0,1.1,0.745,2,1.655,2c0.911,0,1.656-0.9,1.656-2v-13.217c0-0.47-0.142-0.896-0.368-1.239
			C22.146,276.574,22.146,272.849,22.146,266.72z"/>
		<path fill="#3382B9" d="M28.77,262.166v4.863h-0.812v-5.025c-0.268-0.035-0.55-0.06-0.843-0.07v5.096h-0.812v-5.098
			c-0.305,0.01-0.601,0.033-0.88,0.068v5.029h-0.812v-4.874c-0.488,0.137-0.814,0.333-0.814,0.592v5.444
			c0,0.936,0.654,1.722,1.526,1.937v6.326c-0.191,0.326-0.306,0.721-0.306,1.148v13.217c0,1.101,0.745,2,1.655,2
			c0.911,0,1.656-0.899,1.656-2v-13.217c0-0.513-0.166-0.977-0.431-1.331c0-1.471,0-3.521,0-6.115
			c0.935-0.167,1.652-0.984,1.652-1.965v-5.444C29.549,262.494,29.237,262.302,28.77,262.166z"/>
	</g>
</g>
</svg>
