<?xml version="1.0" encoding="utf-8"?>
<!-- Generator: Adobe Illustrator 16.0.3, SVG Export Plug-In . SVG Version: 6.00 Build 0)  -->
<!DOCTYPE svg PUBLIC "-//W3C//DTD SVG 1.1//EN" "http://www.w3.org/Graphics/SVG/1.1/DTD/svg11.dtd">
<svg version="1.1" id="Layer_1" xmlns="http://www.w3.org/2000/svg" xmlns:xlink="http://www.w3.org/1999/xlink" x="0px" y="0px"
	 width="167.387px" height="163.74px" viewBox="0 0 167.387 163.74" enable-background="new 0 0 167.387 163.74"
	 xml:space="preserve">
<path fill="#B6D6F0" d="M139.415,140.244c-11.371-4.322-25.703-6.604-25.703-6.604l-2.501-14.321h-7.957l-0.42-12.435
	c19.108-1.478,25.863-6.97,25.863-6.97s-6,1.334-9-9.333s2.666-18.5,2.666-43.833c0-17.436-11.369-27.293-23.135-31.744
	c-0.022-0.021-0.054-0.048-0.072-0.067c-1.368-1.521-7.421-3.446-15.634-2.854c-14.349,0.003-38.338,9.339-38.338,34.668
	c0,25.333,5.666,33.166,2.666,43.833s-9,9.333-9,9.333s6.805,5.536,26.087,6.987c-0.336,5.435-0.806,12.188-0.806,12.188h-8.186
	l-2.955,14.551c0,0-28.887,8.422-40.257,13.879S0,163.491,0,163.491l167.387-0.002C165.567,150.357,150.785,144.566,139.415,140.244
	z"/>
<path fill="#E6EFF7" d="M83.368,30.416c-15.152,0-22.664,4-22.664,4L53.382,9.582c0,0,7.8-9.832,30.148-9.832
	c22.351,0,30.149,9.832,30.149,9.832l-7.321,24.834c0,0-7.511-4-22.664-4"/>
<polygon fill="#C133B1" points="93.186,13.981 87.12,13.981 87.12,7.916 80.915,7.916 80.915,13.981 74.852,13.981 74.852,20.187 
	80.915,20.187 80.915,26.25 87.12,26.25 87.12,20.187 93.186,20.187 "/>
</svg>
