<?xml version="1.0" encoding="utf-8"?>
<!-- Generator: Adobe Illustrator 16.0.3, SVG Export Plug-In . SVG Version: 6.00 Build 0)  -->
<!DOCTYPE svg PUBLIC "-//W3C//DTD SVG 1.1//EN" "http://www.w3.org/Graphics/SVG/1.1/DTD/svg11.dtd">
<svg version="1.1" id="Layer_1" xmlns="http://www.w3.org/2000/svg" xmlns:xlink="http://www.w3.org/1999/xlink" x="0px" y="0px"
	 width="200.637px" height="468.592px" viewBox="0 0 200.637 468.592" enable-background="new 0 0 200.637 468.592"
	 xml:space="preserve">
<rect x="0" y="0" fill="#9CC6E6" width="200" height="120"/>
<rect x="0.636" y="348.59" fill="#B6D6F0" width="200" height="120.002"/>
<g>
	<path fill="#FFFFFF" d="M46.024,70.143c0.11-0.146,0.323-0.187,0.464-0.08c1.328,0.989,2.677,1.937,4.045,2.839
		c0.169,0.112,0.232,0.28,0.167,0.488c-0.593,1.973-1.146,3.962-1.667,5.967c-0.06,0.212-0.035,0.352,0.018,0.383
		c0.08,0.051,0.215,0.01,0.34-0.191c1.029-1.665,2.061-3.329,3.09-4.993c0.098-0.156,0.305-0.216,0.477-0.109
		c1.233,0.759,2.481,1.481,3.744,2.173c0.2,0.109,0.24,0.34,0.152,0.503c-3.021,5.583-6.041,11.166-9.062,16.749
		c-0.087,0.161-0.287,0.233-0.504,0.115c-1.933-1.055-3.838-2.174-5.717-3.357c-0.12-0.076-0.244-0.279-0.189-0.433
		c0.407-1.613,0.835-3.218,1.284-4.813c0.084-0.537-0.048-0.624-0.398-0.262c-0.857,1.295-1.717,2.591-2.574,3.886
		c-0.103,0.154-0.367,0.167-0.575,0.028c-1.507-1.009-2.993-2.059-4.458-3.151c-0.175-0.13-0.194-0.342-0.067-0.511
		C38.402,80.295,42.213,75.219,46.024,70.143C46.134,69.996,42.213,75.219,46.024,70.143z"/>
	<path fill="#FFFFFF" d="M54.064,84.529c1.471-2.733,4.418-2.492,6.604-1.508c3.041,1.38,4.028,4.174,3.117,6.6
		c-0.193,0.499-0.388,0.999-0.58,1.498c-0.048,0.122-0.204,0.175-0.354,0.117c-1.651-0.646-3.29-1.337-4.912-2.075
		c-0.117-0.054-0.207-0.009-0.262,0.11c-0.573,1.253-1.147,2.507-1.721,3.76c-0.177,0.384-0.026,0.625,0.249,0.75
		c0.214,0.098,0.557,0.076,0.716-0.285c0.219-0.489,0.437-0.979,0.653-1.469c0.043-0.096,0.175-0.152,0.354-0.072
		c1.267,0.626,2.544,1.227,3.833,1.796c0.173,0.098,0.257,0.242,0.199,0.39c-0.202,0.522-0.406,1.047-0.609,1.57
		c-1.193,3.152-4.431,2.985-7.37,1.631c-3.428-1.579-4.38-4.396-2.964-7.032C52.036,88.382,53.05,86.456,54.064,84.529
		C55.534,81.795,53.05,86.456,54.064,84.529z M58.413,87.666c-0.033,0.071,0.03,0.159,0.116,0.197
		c0.661,0.301,0.749,0.337,0.803,0.217c0.686-1.54,0.73-1.721,0.28-1.924c-0.225-0.102-0.486-0.048-0.651,0.312
		C58.778,86.867,58.595,87.266,58.413,87.666C58.38,87.738,58.595,87.266,58.413,87.666z"/>
	<path fill="#FFFFFF" d="M70.705,98.06c0.06-0.449,0.023-0.567-0.039-0.586s-0.154,0.064-0.341,0.479
		c-0.683,1.503-1.376,3.002-2.081,4.498c-0.07,0.115-0.191,0.162-0.325,0.122c-0.418-0.124-4.46-1.017-4.409-1.666
		c0.632-5.208,1.418-10.38,2.359-15.509c0.01-0.108,0.093-0.162,0.177-0.13c1.2,0.457,2.408,0.887,3.623,1.29
		c0.141,0.046,0.199,0.148,0.166,0.25c-0.222,1.489-0.431,2.981-0.626,4.478c-0.02,0.159,0.018,0.254,0.046,0.263
		c0.029,0.011,0.104-0.021,0.189-0.188c0.703-1.324,1.395-2.653,2.073-3.987c0.066-0.118,0.203-0.158,0.288-0.133
		c1.081,0.33,2.167,0.64,3.257,0.928c0.114,0.029,0.18,0.129,0.182,0.237c-0.147,1.495-0.285,2.992-0.41,4.491
		c0.002,0.326,0.082,0.346,0.24,0.062c0.618-1.366,1.226-2.734,1.821-4.108c0.06-0.122,0.191-0.17,0.277-0.15
		c1.229,0.295,2.463,0.562,3.699,0.804c0.114,0.021,0.21,0.147,0.156,0.271c-1.896,4.848-3.943,9.649-6.146,14.4
		c-0.062,0.12-0.181,0.176-0.315,0.145c-1.423-0.324-2.841-0.679-4.252-1.062c-0.134-0.035-0.238-0.175-0.236-0.312
		C70.275,101.313,70.485,99.686,70.705,98.06C70.765,97.611,70.485,99.686,70.705,98.06z"/>
	<path fill="#FFFFFF" d="M93.469,101.418c0.227,0.012,0.352,0.147,0.346,0.278c-0.071,1.632-0.145,3.264-0.215,4.896
		c-0.009,0.185-0.186,0.281-0.391,0.271c-3.599-0.171-7.188-0.523-10.759-1.059c-0.137-0.021-0.29-0.151-0.267-0.308
		c0.229-1.501,0.46-3.003,0.689-4.504c0.023-0.155,0.08-0.308,0.196-0.423c1.968-2.721,3.804-5.497,5.508-8.317
		c0.043-0.128-0.004-0.238-0.123-0.252c-1.288-0.139-2.574-0.304-3.856-0.495c-0.146-0.021-0.22-0.14-0.199-0.271
		c0.24-1.57,0.479-3.142,0.722-4.712c0.023-0.155,0.153-0.271,0.266-0.253c2.916,0.438,5.85,0.726,8.788,0.864
		c0.141,0.007,0.245,0.169,0.238,0.326c-0.059,1.519-0.116,3.035-0.174,4.554c-0.005,0.132-0.072,0.313-0.138,0.441
		c-1.494,2.841-3.116,5.646-4.865,8.406c-0.047,0.154,0.01,0.266,0.203,0.282C90.782,101.264,92.125,101.354,93.469,101.418
		C93.696,101.43,92.125,101.354,93.469,101.418z"/>
	<path fill="#FFFFFF" d="M95.136,95.396c0.128-3.103,2.812-4.174,5.162-4.237c3.271-0.079,5.351,2.013,5.581,4.592
		c0.043,0.534,0.086,1.067,0.128,1.603c0.012,0.131-0.105,0.247-0.263,0.258c-1.742,0.135-3.486,0.222-5.232,0.262
		c-0.125,0.002-0.187,0.083-0.184,0.214c0.028,1.378,0.059,2.756,0.087,4.135c0.008,0.421,0.242,0.574,0.54,0.566
		c0.229-0.006,0.521-0.174,0.51-0.567c-0.019-0.535-0.033-1.07-0.051-1.605c-0.004-0.105,0.09-0.214,0.282-0.221
		c1.386,0.015,2.772,0,4.16-0.044c0.195,0.012,0.332,0.105,0.347,0.264c0.044,0.561,0.088,1.12,0.133,1.681
		c0.293,3.358-2.65,4.607-5.819,4.667c-3.694,0.068-5.719-2.045-5.597-5.036C94.992,99.749,95.064,97.572,95.136,95.396
		C95.264,92.293,95.064,97.572,95.136,95.396z M100.292,96.322c0.001,0.079,0.096,0.131,0.188,0.127
		c0.711-0.017,0.805-0.021,0.8-0.152c-0.054-1.686-0.089-1.866-0.572-1.854c-0.242,0.006-0.45,0.168-0.441,0.562
		C100.273,95.444,100.282,95.883,100.292,96.322C100.293,96.401,100.282,95.883,100.292,96.322z"/>
	<path fill="#FFFFFF" d="M107.151,96.091c-0.216,0.021-0.229-0.111-0.34-1.344c-0.17-2.082,1.443-4.069,4.437-4.497
		c3.164-0.463,5.275,0.924,5.7,2.942c0.472,2.332,0.94,4.664,1.41,6.997c0.042,0.206,0.14,0.188,0.851,0.041
		c0.129-0.026,0.247,0.057,0.271,0.158c0.112,0.532,0.228,1.064,0.339,1.598c0.277,1.26-0.854,3.069-2.763,3.411
		c-1.561,0.275-2.237-0.024-2.833-0.545c-0.196-0.157-0.306-0.192-0.372-0.185c-0.033,0.005-0.16,0.078-0.332,0.314
		c-0.312,0.444-1.061,1.06-2.254,1.206c-1.438,0.185-3.646-0.538-3.867-3.166c-0.058-0.646-0.114-1.294-0.172-1.94
		c-0.177-2.072,1.397-3.319,3.026-4.137c2.164-1.102,2.226-1.426,2.095-2.333c-0.056-0.364-0.265-0.52-0.536-0.479
		c-0.481,0.068-0.461,0.225-0.294,1.425c0.02,0.13-0.095,0.227-0.248,0.247C109.895,95.93,108.522,96.025,107.151,96.091
		C106.935,96.112,108.522,96.025,107.151,96.091z M113.018,99.12c-0.017-0.104-0.091-0.173-0.224-0.181
		c-0.188,0.029-0.792,0.354-0.713,0.928c0.09,0.645,0.18,1.286,0.269,1.93c0.044,0.312,0.323,0.407,0.588,0.37
		c0.263-0.038,0.506-0.208,0.458-0.521C113.27,100.805,113.144,99.962,113.018,99.12C113.001,99.016,113.144,99.962,113.018,99.12z"
		/>
	<path fill="#FFFFFF" d="M121.499,104.423c-0.136,0.03-0.297-0.068-0.318-0.171c-1.409-6.378-2.818-12.756-4.229-19.134
		c-0.052-0.23,0.04-0.333,0.23-0.375c1.281-0.287,2.559-0.604,3.829-0.951c0.188-0.053,0.291,0.002,0.333,0.153
		c1.751,6.33,3.503,12.659,5.255,18.988c0.027,0.102-0.077,0.239-0.211,0.275C124.767,103.652,123.137,104.057,121.499,104.423
		C121.364,104.453,123.137,104.057,121.499,104.423z"/>
	<path fill="#FFFFFF" d="M125.241,92.64c-0.209,0.062-0.246-0.064-0.593-1.254c-0.563-2.012,0.651-4.274,3.535-5.276
		c3.049-1.072,5.411-0.128,6.216,1.771c0.909,2.199,1.819,4.396,2.729,6.597c0.08,0.193,0.174,0.158,0.851-0.127
		c0.123-0.053,0.258,0.005,0.299,0.103c0.214,0.501,0.428,1.002,0.642,1.503c0.515,1.183-0.268,3.186-2.096,3.896
		c-1.496,0.578-2.226,0.414-2.914,0.021c-0.226-0.115-0.341-0.13-0.404-0.106c-0.031,0.012-0.145,0.106-0.271,0.375
		c-0.225,0.498-0.848,1.247-2.003,1.623c-1.392,0.46-3.712,0.179-4.429-2.36c-0.182-0.624-0.361-1.248-0.541-1.873
		c-0.568-2.001,0.752-3.528,2.21-4.646c1.935-1.503,1.933-1.835,1.63-2.697c-0.123-0.349-0.358-0.459-0.622-0.368
		c-0.466,0.162-0.415,0.312-0.021,1.457c0.043,0.125-0.051,0.24-0.198,0.291C127.925,91.951,126.584,92.31,125.241,92.64
		C125.032,92.701,126.584,92.31,125.241,92.64z M131.627,94.475c-0.035-0.1-0.123-0.151-0.254-0.134
		c-0.185,0.065-0.72,0.502-0.531,1.051c0.212,0.613,0.423,1.229,0.634,1.843c0.532,0.449,0.867,0.332,1.006-0.351
		C132.198,96.08,131.913,95.277,131.627,94.475C131.592,94.375,131.913,95.277,131.627,94.475z"/>
	<path fill="#FFFFFF" d="M141.053,98.014c-0.129,0.056-0.3,0.015-0.361-0.129c-2.045-4.692-4.091-9.385-6.136-14.077
		c-0.042-0.098,0.008-0.205,0.115-0.252c1.14-0.499,2.269-1.022,3.386-1.569c0.356,0.216,0.69,0.463,1.001,0.74
		c0.025-0.014,0.068-0.063,0.119-0.236c0.216-0.786,0.541-1.33,1.653-1.921c1.293-0.685,3.068-0.554,3.972,0.993
		c2.138,3.723,4.275,7.444,6.414,11.167c0.039,0.068,0.005,0.149-0.088,0.203c-1.413,0.811-2.84,1.584-4.28,2.323
		c-0.125,0.063-0.256,0.042-0.304-0.052c-1.632-3.199-3.265-6.396-4.896-9.597c-0.18-0.353-0.463-0.354-0.688-0.242
		c-0.225,0.113-0.391,0.343-0.215,0.696c1.603,3.225,3.203,6.447,4.806,9.671c0.047,0.096,0.008,0.173-0.148,0.251
		C143.965,96.695,142.515,97.372,141.053,98.014C140.924,98.07,142.515,97.372,141.053,98.014z"/>
	<path fill="#FFFFFF" d="M158.221,88.49c-0.148,0.104-0.812-0.243-0.931-0.164c-0.061,0.039-0.119,0.144-0.253,0.391
		c-0.253,0.518-0.78,1.086-1.473,1.527c-1.506,0.969-3.726,1.21-5.901-2.522c-0.933-1.581-1.864-3.161-2.797-4.742
		c-2.015-3.457-0.947-5.312,0.37-6.167c0.589-0.378,1.17-0.542,1.731-0.476c0.199,0.023,0.308,0.018,0.357-0.019
		c0.024-0.017,0.047-0.095-0.042-0.228c-0.86-1.272-1.721-2.546-2.58-3.818c-0.073-0.108-0.052-0.283,0.068-0.363
		c1.039-0.708,2.067-1.44,3.084-2.199c0.117-0.087,0.259-0.096,0.338,0.012c3.942,5.251,7.886,10.502,11.828,15.754
		c0.078,0.104-0.002,0.297-0.118,0.384C160.694,86.766,159.464,87.643,158.221,88.49C158.073,88.594,159.464,87.643,158.221,88.49z
		 M151.704,79.673c-0.222-0.326-0.621-0.405-0.886-0.229c-0.238,0.159-0.215,0.428-0.069,0.646c1.214,1.84,2.429,3.679,3.642,5.519
		c0.088,0.133,0.275,0.418,0.647,0.17c0.114-0.075,0.198-0.195,0.24-0.319c0.057-0.164,0.081-0.372-0.052-0.567
		C154.053,83.151,152.878,81.412,151.704,79.673C151.483,79.347,152.878,81.412,151.704,79.673z"/>
</g>
<path fill="#FFFFFF" d="M133.734,388.899h-5.994v-2.738c0.735-0.426,1.874-1.227,1.688-2.28h0.029v-5.95h-0.046
	c0.422-1.645-2.165-2.694-3.215-3.117c0.433-3.805-2.594-7.254-6.444-7.254c0-3.881-4.963-5.718-7.497-2.764
	c-1.726-1.332-4.031-1.707-6.091-0.988c-1.441-4.22-6.712-5.918-10.344-3.273c-3.702-5.422-12.011-5.198-15.424,0.416
	c-5.419-3.906-12.876,1.118-11.49,7.542c-4.14,0.28-5.395,5.896-1.812,7.935h-0.031c0,0,1.245,4.501,0,7.685
	c-0.64,1.638-0.242,9.757,3.213,5.639v48.182c-0.76,0.44-1.947,1.294-1.67,2.382h-0.046v5.95h0.029
	c-1.597,9.013,62.436,9.012,60.839,0h0.029v-5.95h-0.046c0.277-1.089-0.91-1.942-1.671-2.382v-2.739h5.994
	c6.161,0,11.173-5.012,11.173-11.173v-23.947C144.906,393.911,139.895,388.899,133.734,388.899z M137.459,424.019
	c0,2.054-1.671,3.724-3.726,3.724h-5.994v-31.395h5.994c2.055,0,3.726,1.67,3.726,3.724V424.019z"/>
<g>
	<path fill="#FFFFFF" d="M53.316,44.281c-0.389-0.26-0.503-0.176-0.343,0.252c1.416,2.412,2.832,4.825,4.248,7.238
		c0.132,0.227,0.04,0.632-0.246,0.804c-2.273,1.358-4.497,2.839-6.661,4.438c-0.231,0.172-0.647,0.104-0.856-0.176
		c-6.311-8.403-12.621-16.81-18.932-25.212c-0.131-0.174-0.044-0.513,0.229-0.713c3.083-2.29,6.254-4.403,9.499-6.344
		c0.458-0.273,0.833-0.292,0.967-0.066c1.275,2.176,2.553,4.352,3.829,6.525c0.089,0.15,0.208,0.231,0.313,0.169
		c0.107-0.062,0.171-0.199,0.167-0.449c-0.575-2.6-1.099-5.219-1.567-7.854c0.012-0.255,0.161-0.536,0.452-0.692
		c3.421-1.854,6.915-3.521,10.467-4.999c0.242-0.102,0.475-0.056,0.557,0.146c0.033,0.08,0.065,0.161,0.039,0.266
		c-0.726,5.489-1.095,10.941-1.117,16.319c-0.024,0.207,0.062,0.504,0.101,0.583c0.039,0.078,0.208,0.285,0.315,0.376
		c4.626,3.695,8.918,7.665,12.857,11.861c0.188,0.206,0.165,0.401-0.094,0.51c-2.65,1.098-5.257,2.342-7.807,3.732
		c-0.166,0.09-0.354,0.045-0.5-0.123C57.316,48.64,55.342,46.441,53.316,44.281C53.161,44.121,55.342,46.441,53.316,44.281z"/>
	<path fill="#FFFFFF" d="M75.876,43.973c0.048,0.167-0.037,0.373-0.214,0.425c-2.182,0.643-4.341,1.377-6.474,2.206
		c-0.174,0.067-0.428-0.065-0.492-0.229c-3.076-7.811-6.152-15.619-9.229-23.43c-0.111-0.282,0.038-0.575,0.385-0.71
		c2.724-1.055,5.479-1.993,8.261-2.817c0.354-0.104,0.648,0.037,0.709,0.246C71.173,27.767,73.525,35.87,75.876,43.973
		C75.924,44.14,73.525,35.87,75.876,43.973z M67.594,17.667c0.073,0.25-0.104,0.528-0.459,0.638c-2.418,0.73-4.814,1.548-7.188,2.45
		c-0.292,0.111-0.677-0.021-0.771-0.263c-0.649-1.677-1.3-3.354-1.948-5.029c-0.079-0.202,0.135-0.565,0.443-0.684
		c2.533-0.964,5.093-1.836,7.673-2.614c0.252-0.076,0.604-0.044,0.667,0.164C66.539,14.109,67.066,15.888,67.594,17.667
		C67.667,17.917,67.066,15.888,67.594,17.667z"/>
	<path fill="#FFFFFF" d="M73.643,26.996c-0.38,0.101-0.437-0.108-0.962-2.085c-0.933-3.279,1.853-7.351,8.165-8.434
		c6.681-1.086,10.593,1.803,10.771,5.158c0.271,3.919,0.544,7.838,0.815,11.757c0.023,0.349,0.175,0.332,1.278,0.27
		c0.201-0.012,0.359,0.154,0.369,0.329c0.046,0.896,0.092,1.795,0.139,2.692c0.082,2.132-1.769,4.731-4.296,5.006
		c-2.099,0.231-3.003-0.277-3.854-1.165c-0.277-0.266-0.432-0.329-0.525-0.313c-0.046,0.008-0.22,0.123-0.44,0.513
		c-0.407,0.729-1.355,1.724-2.936,2.048c-1.881,0.371-5.034-0.378-6.206-4.559c-0.278-1.035-0.559-2.071-0.837-3.107
		c-0.92-3.312,1.371-5.833,4.149-7.413c3.681-2.093,3.884-2.54,3.629-4.062c-0.095-0.602-0.481-0.85-0.989-0.764
		c-0.904,0.153-0.857,0.413-0.51,2.382c0.038,0.214-0.158,0.381-0.433,0.433C78.524,26.026,76.078,26.463,73.643,26.996
		C73.263,27.097,76.078,26.463,73.643,26.996z M84.091,31.062c-0.026-0.171-0.15-0.284-0.365-0.293
		c-0.312,0.048-1.285,0.613-1.114,1.558c0.188,1.056,0.375,2.111,0.562,3.168c0.093,0.514,0.521,0.657,0.912,0.593
		c0.393-0.065,0.749-0.343,0.668-0.857C84.533,33.84,84.312,32.451,84.091,31.062C84.065,30.891,84.312,32.451,84.091,31.062z"/>
	<path fill="#FFFFFF" d="M100.288,18.406c-0.017-6.734,6.338-9.982,13.541-8.996c7.207,0.949,12.521,5.773,10.717,12.265
		c-1.069,4.155-2.144,8.312-3.213,12.467c-1.787,6.458-6.959,8.444-11.892,7.809c-4.926-0.688-9.354-3.929-9.361-10.673
		C100.149,26.987,100.218,22.697,100.288,18.406C100.272,11.672,100.218,22.697,100.288,18.406z M109.969,31.844
		c-0.08,0.647,0.112,1.151,0.67,1.227c0.557,0.075,0.877-0.359,0.971-1.006c0.601-4.161,1.199-8.321,1.8-12.482
		c0.081-0.56-0.126-1.206-0.777-1.293c-0.649-0.087-1.016,0.438-1.09,1.042C111.017,23.501,110.494,27.673,109.969,31.844
		C109.889,32.491,110.494,27.673,109.969,31.844z"/>
	<path fill="#FFFFFF" d="M127.307,19.263c0.06-0.209,0.212-0.304,0.446-0.236c2.771,0.781,5.519,1.677,8.231,2.686
		c0.35,0.129,0.259,1.583,0.54,1.69c0.113,0.043,0.259,0.007,0.45-0.151c0.945-0.752,2.233-0.299,3.996,0.458
		c0.171,0.074,0.289,0.268,0.22,0.428c-0.831,1.915-1.661,3.829-2.492,5.745c-0.068,0.159-0.228,0.231-0.492,0.118
		c-2.729-1.159-4.236-0.439-5.479,2.849c-1.681,4.401-3.356,8.805-5.037,13.207c-0.078,0.203-0.312,0.299-0.53,0.218
		c-2.125-0.798-4.277-1.504-6.448-2.117c-0.18-0.05-0.276-0.213-0.22-0.422C122.764,35.575,125.036,27.419,127.307,19.263
		C127.366,19.054,125.036,27.419,127.307,19.263z"/>
	<path fill="#FFFFFF" d="M139.895,32.845c-0.363-0.167-0.271-0.364,0.576-2.225c1.365-3.121,6.133-4.492,11.852-1.215
		c6.021,3.523,7.347,8.375,5.329,11.062c-2.298,3.186-4.597,6.371-6.896,9.558c-0.202,0.284-0.071,0.37,0.861,1.062
		c0.17,0.126,0.192,0.36,0.088,0.5c-0.539,0.72-1.079,1.438-1.619,2.156c-1.303,1.689-4.476,2.437-6.683,0.976
		c-1.834-1.208-2.229-2.189-2.338-3.428c-0.052-0.387-0.133-0.536-0.218-0.585c-0.042-0.023-0.254-0.049-0.681,0.105
		c-0.792,0.295-2.187,0.439-3.645-0.331c-1.729-0.936-3.727-3.533-1.975-7.504c0.441-0.978,0.887-1.954,1.329-2.933
		c1.393-3.143,4.797-3.619,8.012-3.035c4.259,0.775,4.716,0.573,5.486-0.763c0.311-0.523,0.16-0.968-0.301-1.232
		c-0.817-0.473-0.947-0.241-1.933,1.5c-0.105,0.188-0.371,0.188-0.621,0.05C144.358,35.237,142.145,33.996,139.895,32.845
		C139.531,32.678,142.145,33.996,139.895,32.845z M145.556,42.73c0.089-0.148,0.062-0.316-0.104-0.465
		c-0.281-0.167-1.417-0.366-1.887,0.47c-0.526,0.935-1.055,1.868-1.582,2.803c-0.483,0.856,0.929,1.67,1.429,0.824
		C144.127,45.152,144.842,43.941,145.556,42.73C145.645,42.581,144.842,43.941,145.556,42.73z"/>
</g>
<path fill="#0B6EB8" d="M64.482,52.986c-4.546-5.981,1.7-13.895,8.306-12.42c9.019-10.893,23.567-15.883,37.171-11.005
	c14.989,5.375,21.003,33.131,3.57,39.71c-1.827,0.688-2.092,1.979-2.094,3.009c0,1.05,0.14,3.411,0.385,5.231
	c0.122,0.898,1.521,1.436,2.417,2.708c0.897,1.271,1.387,2.112,1.543,3.417c0.122,1,0,1.271-0.72,0.323
	c-1.445-1.898-5.031-4.997-7.408-2.62c-0.896,0.897-2.17,2.393-2.617,2.545c-0.615,0.208-1.945,1.422-2.47,2.244
	c-0.203,0.273-0.405,0.547-0.607,0.82c-0.481,0.296,0.911-3.849,1.056-4.036c1.236-1.6,2.017-2.528,2.244-2.769
	c-1.941,0.594-3.435,0.521-5.836,1.943c-0.839,0.497-1.023,0.344-0.323-0.61c0.781-1.065,1.557-1.744,3.467-2.531
	c1.797-0.74,4.24-1.042,4.809-1.13c0.525-0.081,1.096-0.756,1.229-2.038c0.101-0.967,0.338-4.017-0.125-5.137
	c-0.291-0.704-2.259-1.038-4.041-4.863c-0.77,0.475-2.506,1.188-3.999,1.573c-0.692,0.179-0.857,2.508-0.938,4.188
	c-0.082,1.721,0.226,4.188,0.3,4.861c0.075,0.673,0.22,1.054-0.566,1.434c-2.12,1.021-2.01,1.671-3.284,2.96
	c-1.071,1.084-1.448,1.925-1.622,2.348c-0.281,0.678-0.436,0.287-0.428-0.331c0.012-1.034,0.169-2.37,0.749-3.426
	c-1.367,0.593-2.989,1.291-4.111,1.59c-1.123,0.299-2.4,0.104-3.795,0.604c-1.162,0.415-1.206,0.523-1.806,0.749
	c-0.6,0.225-0.319-0.275,0.404-0.975c0.651-0.625,2.994-1.806,4.268-2.178c1.271-0.375,2.816-1.254,3.099-1.419
	c-0.987-1.147-3.664-0.736-4.861-0.601c-0.572,0.063-0.653-0.139,0.289-0.761c2.466-1.626,7.88,1.223,8.454-2.555
	c0.178-1.163,0.407-4.32,0.413-5.896c-1.285-0.848-5.067-2.383-5.067-9.31c-3.583-7.012-12.219-1.564-18.266-3.55
	c-1.41-0.464-2.807-0.215-4.696,1.395c-3.013,2.562-6.777,8.722-8.271,14.133c-0.119,0.43-1.143,6.424-1.769,6.424
	c-0.861,0-0.333-3.764-0.286-4.098C59.684,65.488,62.25,57.809,64.482,52.986C64.206,52.623,62.25,57.809,64.482,52.986z"/>
<rect x="0.079" y="174.542" fill="#E6EFF7" width="200" height="120"/>
<path fill="#0B6EB8" d="M71.488,197.499c0-2.558-1.235-5.053-4.217-4.22c-1.033,0.38-1.99,0.253-2.871-0.381
	c-2.128-2.24,1.132-3.587,2.871-3.369l3.104,0.41c2.533,0.338,5.089,0.284,7.618-0.06l2.637-0.353c4.254-0.533,4.302,4.509,0,3.75
	c-2.98-0.844-4.217,1.671-4.217,4.22v23.498c0,2.876,1.19,4.746,4.217,4.278c4.136-0.654,4.41,3.808,0.41,3.808
	c-0.156-0.04-0.293-0.06-0.41-0.06l-3.047-0.469c-2.499-0.384-5.125-0.317-7.619,0.059l-2.694,0.41c-0.078,0-0.215,0.02-0.41,0.06
	c-4.02,0-3.705-4.237,0.408-3.867c3.017,0.823,4.217-1.562,4.217-4.219v-23.497L71.488,197.499L71.488,197.499z"/>
<path fill="#0B6EB8" d="M70.63,241.281l15.733,32.757v-23.614c0-3.047-0.021-4.727-0.059-5.039c-0.437-2.516-1.983-3.26-4.336-2.902
	c-0.978,0.331-1.886,0.193-2.725-0.411c-2.055-2.044,1.011-3.808,2.843-3.366l2.638,0.353c2.464,0.326,4.861,0.228,7.323-0.088
	c0.586-0.071,1.271-0.16,2.052-0.269c0.078,0,0.215-0.019,0.409-0.056c3.85,0,3.646,3.984-0.112,3.984h-0.596
	c-1.194,0-1.971,0.254-2.328,0.763c-0.356,0.507-0.576,1.617-0.655,3.334v3.334v5.968v15.62c0,2.69-0.305,4.584-0.913,5.676
	c-2.338,4.203-6.797,0.074-8.035-2.465l-15.428-31.937v27.248c0,3.124,1.298,4.603,4.394,4.308c3.979-0.38,4.266,3.778,0.291,3.778
	c-0.195-0.039-0.332-0.06-0.41-0.06l-2.401-0.352c-2.581-0.377-5.093-0.313-7.677,0l-2.871,0.352c-0.078,0-0.215,0.021-0.41,0.06
	c-4.057,0-3.635-4.123,0.468-3.75c3.017,0.822,4.217-1.562,4.217-4.219v-4.103v-5.156v-5.039v-9.26c0-2.844-1.183-4.738-4.186-4.278
	c-4.485,0.708-4.348-4.171-0.036-3.75c2.431,0.243,11.028-1.228,12.166,1.17L70.63,241.281z"/>
<path fill="#0B6EB8" d="M119.999,266.257c0-0.156,0-0.528,0-1.117c-0.039-0.629-0.06-1.16-0.06-1.593l-11.368-18.088
	c-0.741-1.18-1.211-1.866-1.405-2.062c-0.699-0.702-2.309-1.344-3.224-0.591c-5.391,0-4.198-4.762,0.882-3.927
	c3.635,0.605,7.089,0.468,10.722-0.058c4.387-0.621,6.247,3.691,1.64,3.691H116.6h-1.465h-1.173
	c-0.609,0.098-0.824,0.362-0.644,0.795c0.038,0.06,0.137,0.226,0.293,0.5l8.966,15.289l9.083-15.236
	c0.557-0.734,0.4-1.222-0.47-1.464h-0.116l-1.056,0.117l-1.522,0.176c-5.133,0.61-4.843-4.629,0.528-3.867
	c3.777,0.54,7.475,0.587,11.25,0c5.148-0.766,5.226,4.463,0.703,3.604c-1.518-0.143-2.808-0.097-3.75,1.318l-0.879,1.348
	l-11.544,18.107v2.461c0,3.983,0.166,6.466,0.498,7.44c0.581,1.71,2.542,1.526,3.927,1.319c4.03-0.604,4.193,3.837,0.263,3.837
	c-0.157-0.038-0.293-0.059-0.41-0.059l-3.225-0.41c-2.367-0.304-4.781-0.324-7.147,0l-2.987,0.41c-0.079,0-0.196,0.021-0.353,0.059
	c-3.995,0-3.813-4.479,0.205-3.839c2.384,0.389,3.94-0.458,4.364-2.978C119.978,271.088,119.999,269.361,119.999,266.257z"/>
<g>
	<path fill="#C133B1" d="M114.011,233.534c10.016-5.3,21.107-14.11,23.857-25.62c1.92-8.03-1.149-19.237-10.565-20.561
		c-5.801-0.815-11.412,2.4-13.292,7.975h0.129c-1.811-5.588-7.403-8.787-13.184-7.975c-9.419,1.324-12.481,12.529-10.57,20.561
		c2.734,11.491,13.76,20.309,23.751,25.62H114.011z"/>
</g>
<path fill="#E6EFF7" d="M78.252,391.926v45.427c1.974,0.777,4.97,1.43,8.635,1.883v-45.692
	C83.415,393.149,80.452,392.594,78.252,391.926z"/>
<path fill="#E6EFF7" d="M99.008,394.179c-2.41,0-4.738-0.07-6.942-0.2v45.731c3.928,0.248,7.872,0.279,11.804,0.108v-45.736
	C102.296,394.145,100.672,394.179,99.008,394.179z"/>
<path fill="#E6EFF7" d="M110.551,393.604v45.699c3.579-0.415,6.562-1.017,8.636-1.737v-45.475
	C116.927,392.721,113.973,393.24,110.551,393.604z"/>
<g enable-background="new    ">
	<path fill="#0B6EB8" d="M48.073,406.598c0.3-0.046,0.582-0.138,0.849-0.276c0.265-0.139,0.523-0.3,0.778-0.483
		c0.208-0.161,0.427-0.34,0.656-0.536c0.23-0.195,0.474-0.386,0.728-0.57c0.161-0.115,0.276-0.229,0.346-0.347
		c0.069-0.114,0.092-0.229,0.069-0.346c-0.248-0.464-0.582-0.856-1.003-1.177c-0.069-0.092-0.15-0.185-0.242-0.275
		c-0.092-0.092-0.173-0.196-0.242-0.312c-0.138-0.185-0.265-0.415-0.38-0.691c-0.27-0.726-0.224-1.441,0.138-2.146
		c0.208-0.438,0.588-0.876,1.143-1.313c0.507-0.415,1.192-0.823,2.058-1.229c0.865-0.402,1.965-0.789,3.303-1.158v0.52
		c-0.393,0.161-0.731,0.312-1.021,0.449c-0.289,0.139-0.536,0.276-0.744,0.415c-0.78,0.821-0.561,1.363,0.657,1.626
		c0.461,0.139,0.876,0.438,1.245,0.898c0.566,0.711,0.685,1.643,0.415,2.457c-0.186,0.507-0.554,0.991-1.106,1.452
		c-0.554,0.462-1.373,0.854-2.456,1.177c1.891,0.369,3.292,1.118,4.203,2.248c1.11,1.377,1.535,3.094,1.297,4.825
		c-0.046,0.335-0.116,0.675-0.208,1.021c-0.577,2.053-1.978,3.932-4.203,5.638c-2.226,1.707-5.171,2.571-8.837,2.595h-0.415
		c-4.059-0.093-7.12-0.963-9.184-2.611c-2.064-1.647-3.488-3.465-4.272-5.447c-0.369-0.922-0.628-1.827-0.777-2.716
		c-0.15-0.888-0.226-1.7-0.226-2.438v-0.657c0.253-3.343,1.239-5.908,2.958-7.694c1.717-1.787,3.58-2.936,5.586-3.442
		c0.415-0.092,0.824-0.161,1.229-0.207c1.317-0.15,2.677-0.068,3.942,0.346c0.841,0.276,1.539,0.682,2.093,1.211L47,397.017
		c0.184-0.115,0.369-0.219,0.553-0.312l0.069-0.034c0.348-0.197,0.683-0.417,1.003-0.657v0.519
		c-0.208,0.162-0.403,0.301-0.588,0.415c-0.186,0.116-0.358,0.231-0.52,0.347c-0.276,0.193-0.542,0.401-0.796,0.623
		c0.415,0.275,0.755,0.623,1.021,1.038c0.265,0.415,0.467,0.888,0.604,1.418l-0.519-0.035c-0.023-0.022-0.041-0.058-0.053-0.104
		c-0.012-0.046-0.028-0.092-0.052-0.139c-0.139-0.346-0.341-0.686-0.604-1.02c-0.267-0.335-0.583-0.63-0.951-0.884
		c-0.369,0.348-0.635,0.688-0.795,1.021c-0.597,1.232,0.102,2.478,0.622,3.58c0.057,0.104,0.115,0.207,0.172,0.311L48.073,406.598z
		 M45.893,397.64c-0.068-0.022-0.185-0.075-0.346-0.156c-0.162-0.08-0.358-0.167-0.588-0.259c-0.323-0.115-0.687-0.226-1.089-0.329
		c-0.556-0.139-1.115-0.185-1.679-0.138c-0.138,0.013-0.275,0.029-0.415,0.053c-1.015,0.207-1.948,0.951-2.802,2.23
		c-0.853,1.279-1.292,3.58-1.313,6.899c0,0.323,0.005,0.657,0.018,1.003c0.011,0.348,0.028,0.704,0.052,1.073
		c0.139,4.75,0.87,7.979,2.196,9.686c2.171,2.795,8.282,3.986,10.654,0.727c1.937-2.668,1.526-7.249,1.072-10.291
		c-0.173-1.166-0.862-2.119-2.093-1.556c-0.276,0.127-0.588,0.328-0.934,0.604c0.416,0.716,0.715,1.407,0.898,2.076
		c0.185,0.669,0.277,1.314,0.277,1.937c0.022,1.546-0.438,2.854-1.384,3.927c-0.946,1.071-1.983,1.725-3.113,1.954
		c-0.116,0.022-0.242,0.041-0.38,0.053c-0.306,0.027-0.612,0.021-0.917-0.018c-0.173-0.021-0.352-0.058-0.536-0.104
		c-0.946-0.3-1.677-0.727-2.196-1.28c-0.519-0.554-0.904-1.13-1.158-1.729c-0.208-0.507-0.341-1.009-0.398-1.505
		c-0.058-0.495-0.086-0.904-0.086-1.229l0.554-0.034c0.161,1.36,0.45,2.403,0.865,3.13c0.415,0.728,0.865,1.229,1.349,1.506
		c0.161,0.092,0.323,0.16,0.484,0.207c0.521,0.15,1.017,0.053,1.487-0.294c0.429-0.498,0.526-1.034,0.294-1.608
		c-0.081-0.23-0.213-0.472-0.397-0.728c-0.196-0.265-0.392-0.529-0.588-0.794c-0.369-0.529-0.738-1.084-1.105-1.659
		c-0.369-0.576-0.704-1.153-1.003-1.729c-0.369-0.715-0.675-1.424-0.918-2.128c-0.335-0.865-0.439-1.741-0.311-2.628
		c0.035-0.195,0.075-0.386,0.121-0.57c0.253-0.83,0.675-1.631,1.263-2.403s1.216-1.458,1.885-2.059
		c0.415-0.392,0.818-0.738,1.211-1.038c0.392-0.299,0.749-0.553,1.071-0.761v-0.038H45.893z"/>
	<path fill="#0B6EB8" d="M70.417,401.998l3.805,5.983l-7.609,4.912c0.415,1.291,0.969,2.227,1.66,2.802
		c0.692,0.576,1.418,0.899,2.18,0.969c0.068,0.022,0.126,0.034,0.173,0.034h0.208c0.646,0,1.268-0.144,1.868-0.433
		c0.6-0.288,1.106-0.675,1.521-1.158l0.277,0.483c-0.369,0.347-0.738,0.67-1.107,0.969c-0.369,0.3-0.75,0.601-1.142,0.899
		c-0.761,0.577-1.504,1.142-2.231,1.694c-0.726,0.554-1.413,1.096-2.058,1.625c-2.029-0.645-3.511-1.51-4.444-2.594
		s-1.551-2.202-1.851-3.354c-0.126-0.453-0.207-0.915-0.242-1.384c-0.023-0.346-0.046-0.702-0.069-1.071
		c-0.022-0.368-0.035-0.749-0.035-1.142v-0.45c0-0.16,0.012-0.321,0.035-0.483c0.046-1.152,0.271-2.254,0.674-3.303
		c0.403-1.051,1.112-1.806,2.128-2.267L70.417,401.998z M66.335,404.42v7.645l3.527-2.18L66.335,404.42z"/>
	<path fill="#0B6EB8" d="M82.938,406.356l4.358-4.116l3.009,4.637l-3.562,3.839l-2.698-4.358l-1.107,0.796v7.921
		c0.069,0.531,0.259,0.957,0.571,1.28c1.35,1.404,3.693-0.415,4.617-1.245l0.276,0.483l-6.538,5.466
		c-0.254-0.208-0.548-0.45-0.882-0.727s-0.697-0.576-1.09-0.899c-1.184-1.022-2.533-1.726-4.047-2.11
		c-0.081-0.011-0.162-0.022-0.242-0.034v-0.589c0.115,0.023,0.242,0.029,0.38,0.019c0.14-0.012,0.288-0.04,0.45-0.087
		c0.323-0.069,0.628-0.219,0.917-0.449c0.288-0.23,0.432-0.589,0.432-1.072v-6.85c0.053-1.05-0.408-1.638-1.384-1.764H76.26
		c-0.023,0-0.058,0.012-0.104,0.033c-0.208,0.023-0.409,0.094-0.604,0.208c-0.196,0.115-0.363,0.267-0.501,0.449l-0.277-0.588
		l4.912-4.601c0.808,0.416,1.545,1.016,2.214,1.799C82.569,404.558,82.914,405.411,82.938,406.356z"/>
	<path fill="#0B6EB8" d="M102.551,401.721c0.807,0.23,1.544,0.657,2.213,1.28c0.669,0.622,1.049,1.278,1.142,1.972
		c0.022,0.046,0.034,0.092,0.034,0.138v0.277c0,0.046-0.012,0.092-0.034,0.138c0,0.069-0.006,0.127-0.017,0.173
		c-0.013,0.048-0.029,0.094-0.053,0.14l5.707-4.116c0.022,0.047,0.035,0.081,0.035,0.104l1.142,1.106
		c0.905,0.927,1.966,1.619,3.182,2.076v0.519c-0.093,0-0.18-0.005-0.26-0.017c-1.073-0.153-1.642,0.662-1.642,1.676v7.748
		c0,0.438,0.062,0.848,0.188,1.229c0.378,0.567,0.851,0.717,1.418,0.448c0.242-0.079,0.524-0.225,0.849-0.432v0.52l-4.912,4.08
		c-1.224-0.782-1.982-1.51-2.282-2.179s-0.45-1.199-0.45-1.591v-10.135c0-0.53-0.067-0.905-0.207-1.124
		c-0.328-0.357-0.697-0.427-1.107-0.208c-0.186,0.081-0.369,0.189-0.554,0.328c-0.093,0.047-0.18,0.099-0.26,0.155
		c-0.081,0.059-0.156,0.109-0.225,0.155c-0.115,0.093-0.226,0.173-0.328,0.242c-0.104,0.069-0.203,0.139-0.295,0.208v8.578
		c0,0.507,0.08,0.979,0.242,1.418c0.16,0.438,0.438,0.657,0.83,0.657v0.483c-0.545,0.085-1.041,0.292-1.487,0.622
		c-0.854,0.646-1.534,1.441-2.04,2.386c-0.277-0.438-0.571-0.841-0.883-1.21c-0.312-0.368-0.629-0.681-0.951-0.935
		c-0.369-0.276-0.721-0.484-1.055-0.622c-0.334-0.139-0.641-0.208-0.917-0.208v-0.553c0.645,0.021,1.031-0.186,1.158-0.623
		c0.127-0.438,0.189-0.911,0.189-1.418v-8.061c0-0.646-0.068-1.09-0.207-1.332c-0.362-0.419-0.777-0.482-1.245-0.188
		c-0.254,0.115-0.507,0.241-0.761,0.38c-0.023,0.023-0.052,0.041-0.086,0.052c-0.035,0.012-0.064,0.019-0.087,0.019
		c-0.093,0.068-0.19,0.127-0.294,0.173c-0.104,0.047-0.214,0.093-0.329,0.139v8.924c0,0.577,0.081,1.016,0.241,1.314
		c0.161,0.3,0.45,0.519,0.865,0.657v0.483c-0.691,0.023-1.354,0.334-1.989,0.935c-0.635,0.6-1.158,1.292-1.573,2.074
		c-0.162-0.16-0.323-0.334-0.484-0.519l-0.484-0.554c-0.844-1.14-1.974-1.773-3.39-1.902v-0.553c0.484,0.021,0.887-0.063,1.21-0.26
		c0.323-0.195,0.496-0.663,0.52-1.401c0-0.114-0.007-0.235-0.018-0.362c-0.012-0.127-0.028-0.26-0.052-0.397v-7.402
		c0-0.868-0.37-2.232-1.504-1.574c-0.22,0.127-0.444,0.307-0.675,0.536l-0.276-0.588l4.358-4.082
		c0.383,0.195,0.751,0.414,1.106,0.657c0.438,0.323,0.859,0.709,1.263,1.159c0.403,0.448,0.675,0.916,0.813,1.399
		c0.046,0.116,0.074,0.22,0.086,0.312c0.011,0.093,0.017,0.185,0.017,0.275v0.173c0,0.023-0.012,0.06-0.034,0.104L102.551,401.721z"
		/>
	<path fill="#0B6EB8" d="M126.244,402.24c0.159,0.256,0.401,0.525,0.727,0.813c0.322,0.288,0.703,0.582,1.141,0.882
		c0.509,0.369,1.078,0.721,1.714,1.055c0.633,0.335,1.272,0.617,1.92,0.849c0.184,0.047,0.361,0.093,0.534,0.139
		c0.175,0.046,0.341,0.092,0.502,0.138v0.484h-0.448c-0.508-0.021-0.877,0.116-1.107,0.415c-0.229,0.3-0.346,0.635-0.346,1.004
		v7.574c0,0.646,0.086,1.113,0.26,1.401c0.425,0.438,0.903,0.548,1.436,0.328c0.229-0.067,0.483-0.173,0.76-0.311v0.483
		c-0.668,0.438-1.371,0.975-2.109,1.608s-1.58,1.285-2.524,1.954l-0.14-0.139c-0.021-0.023-0.057-0.047-0.104-0.069
		c-0.115-0.138-0.242-0.259-0.38-0.363c-0.14-0.104-0.276-0.213-0.415-0.328c-0.415-0.368-0.803-0.761-1.158-1.176
		c-0.358-0.416-0.549-0.877-0.571-1.384v-0.069c0-0.021,0.011-0.058,0.034-0.104v-0.139c-0.981,0.575-1.903,1.232-2.768,1.972
		c-0.414,0.323-0.818,0.635-1.211,0.934c-0.393,0.3-0.783,0.588-1.177,0.865c-0.622-0.415-1.123-0.778-1.504-1.09
		c-0.381-0.312-0.687-0.616-0.916-0.917c-0.255-0.346-0.416-0.714-0.483-1.106c-0.07-0.392-0.104-0.888-0.104-1.486v-8.163
		c0-0.14,0.006-0.288,0.018-0.45c0.012-0.161,0.053-0.334,0.121-0.52c0.354-0.75,0.941-1.246,1.766-1.486
		c0.414-0.186,0.881-0.381,1.399-0.588c0.52-0.208,1.043-0.438,1.574-0.691c0.668-0.3,1.314-0.641,1.938-1.021
		c0.622-0.382,1.164-0.803,1.626-1.264v-0.035H126.244z M122.716,416.145c0,0.531,0.074,0.929,0.225,1.193
		c0.282,0.364,0.616,0.479,1.003,0.345c0.127-0.034,0.261-0.086,0.398-0.155l1.383-0.83v-9.271
		c-0.646-0.229-1.188-0.523-1.625-0.882c-0.438-0.357-0.854-0.731-1.246-1.124l-0.138-0.14V416.145z"/>
	<path fill="#0B6EB8" d="M141.774,406.08l5.707-4.082c0.186,0.208,0.381,0.422,0.589,0.641c0.207,0.219,0.414,0.444,0.622,0.674
		c0.438,0.438,0.917,0.854,1.436,1.246c0.52,0.393,1.09,0.634,1.713,0.727v0.52c-0.669,0.022-1.199,0.161-1.592,0.415
		s-0.588,0.854-0.588,1.799v7.332c0,0.069,0.012,0.15,0.034,0.242c0.022,0.347,0.109,0.657,0.261,0.935
		c0.148,0.276,0.407,0.428,0.776,0.449c0.187,0,0.388-0.04,0.605-0.121c0.219-0.08,0.479-0.213,0.779-0.396l0.274,0.242
		l-5.153,4.357c-1.222-0.922-1.982-1.753-2.281-2.491c-0.302-0.736-0.45-1.439-0.45-2.108v-9.028c0-1.448-0.791-1.871-1.902-1.177
		c-0.138,0.093-0.275,0.196-0.415,0.312l-0.415,0.347v9.027c0,0.093,0.012,0.196,0.034,0.312c0.023,0.208,0.092,0.41,0.208,0.604
		c0.114,0.196,0.312,0.342,0.588,0.434v0.483c-0.554,0.161-1.159,0.449-1.814,0.864c-0.658,0.415-1.332,1.223-2.023,2.422
		c-0.506-1.03-1.256-1.837-2.249-2.421c-0.346-0.207-0.681-0.386-1.003-0.536c-0.323-0.148-0.6-0.247-0.83-0.294v-0.553
		c0.553,0.021,1.008-0.081,1.366-0.312c0.356-0.229,0.536-0.761,0.536-1.592v-7.367c-0.016-0.195-0.027-0.392-0.036-0.588
		c-0.04-0.657-0.362-1.084-0.968-1.279c-0.186-0.022-0.394,0.028-0.623,0.155c-0.23,0.127-0.496,0.34-0.796,0.641l-0.276-0.555
		l4.636-4.357c1.083,0.554,1.892,1.142,2.421,1.765C141.474,404.385,141.751,405.157,141.774,406.08z"/>
	<path fill="#0B6EB8" d="M154.848,406.598c-0.715-0.138-1.251-0.489-1.608-1.055c-0.569-0.901-0.605-1.826-0.466-2.784
		c0.185-0.969,0.697-1.862,1.539-2.681c0.842-0.819,2.013-1.264,3.512-1.332v0.519c-0.784,0.208-1.366,0.45-1.747,0.727
		c-0.381,0.277-0.582,0.565-0.605,0.865c0,0.323,0.202,0.634,0.605,0.935c0.403,0.3,0.985,0.554,1.747,0.761
		c0.507,0.139,0.91,0.397,1.211,0.778c0.3,0.381,0.519,0.79,0.656,1.229c0.115,0.369,0.195,0.721,0.242,1.055
		c0.045,0.334,0.068,0.595,0.068,0.778l5.466-3.874c0.554,0.438,1.021,0.916,1.401,1.437c0.38,0.519,0.674,1.055,0.881,1.607
		c0.139,0.369,0.242,0.743,0.312,1.124c0.068,0.38,0.104,0.732,0.104,1.055v8.959c-0.116,2.722-0.97,5.017-2.562,6.883
		c-1.591,1.868-4.093,3.472-7.506,4.81v-0.521c0.023-0.021,0.047-0.04,0.07-0.052c0.021-0.012,0.045-0.017,0.067-0.017
		c1.593-0.97,2.785-2.03,3.58-3.184c0.795-1.152,1.193-2.79,1.193-4.911v-11.727c0-0.6-0.086-1.055-0.26-1.366
		c-0.482-0.552-1.024-0.621-1.625-0.208c-0.335,0.175-0.709,0.434-1.125,0.778v8.129c0,0.577,0.108,0.957,0.329,1.143
		c0.219,0.185,0.479,0.275,0.777,0.275h0.242c0.161,0,0.328-0.021,0.502-0.068c0.172-0.047,0.316-0.093,0.433-0.139l0.104-0.035
		c0.023-0.021,0.047-0.033,0.07-0.033v0.519c-1.317,0.628-2.471,1.481-3.459,2.561c-0.231,0.208-0.469,0.421-0.709,0.641
		c-0.242,0.219-0.49,0.42-0.744,0.604c-0.14-0.114-0.283-0.229-0.434-0.346c-0.149-0.115-0.281-0.242-0.396-0.38
		c-0.23-0.208-0.45-0.415-0.658-0.623c-0.207-0.208-0.414-0.403-0.622-0.588c-0.346-0.323-0.698-0.605-1.055-0.848
		c-0.358-0.242-0.756-0.397-1.193-0.468v-0.554c0.415,0.023,0.796-0.092,1.143-0.346c0.346-0.254,0.519-0.588,0.519-1.003V406.598z"
		/>
</g>
</svg>
