<?xml version="1.0" encoding="utf-8"?>
<!-- Generator: Adobe Illustrator 16.0.3, SVG Export Plug-In . SVG Version: 6.00 Build 0)  -->
<!DOCTYPE svg PUBLIC "-//W3C//DTD SVG 1.1//EN" "http://www.w3.org/Graphics/SVG/1.1/DTD/svg11.dtd">
<svg version="1.1" id="Layer_1" xmlns="http://www.w3.org/2000/svg" xmlns:xlink="http://www.w3.org/1999/xlink" x="0px" y="0px"
	 width="343.411px" height="292.248px" viewBox="0 0 343.411 292.248" enable-background="new 0 0 343.411 292.248"
	 xml:space="preserve">
<g>
	<path fill="#E4F0F7" stroke="#3383B9" stroke-width="3" stroke-miterlimit="10" d="M275.825,17.271
		c9.712-8.149,21.126-13.087,32.143-13.905c10.65-0.79,32.183,24.871,29.555,35.223c-2.718,10.709-9.563,21.094-19.273,29.241
		L117.689,236.117c-5.191,4.358-17.317,7.701-30.154,11.238c-11.234,3.096-23.965,6.606-34.482,11.475
		c-9.27,4.288-16.922,9.621-23.071,13.902c-4.4,3.063-8.199,5.71-11.071,6.891c-2.964,1.221-3.655,0.395-4.16-0.205
		c-0.53-0.633-1.331-1.587,0.697-4.761c1.869-2.927,5.445-6.561,9.584-10.769c5.454-5.543,12.242-12.443,18.249-20.9
		c6.679-9.402,12.159-21.176,16.991-31.562c5.215-11.207,10.141-21.793,14.995-25.866L275.825,17.271"/>
	<g>
		<line fill="none" stroke="#C1D3E0" stroke-miterlimit="10" x1="77.139" y1="197.693" x2="106.064" y2="232.165"/>
		<line fill="none" stroke="#C1D3E0" stroke-miterlimit="10" x1="81.346" y1="194.164" x2="110.271" y2="228.635"/>
		<line fill="none" stroke="#C1D3E0" stroke-miterlimit="10" x1="85.553" y1="190.633" x2="114.478" y2="225.105"/>
		<line fill="none" stroke="#C1D3E0" stroke-miterlimit="10" x1="89.76" y1="187.104" x2="118.685" y2="221.575"/>
		<line fill="none" stroke="#C1D3E0" stroke-miterlimit="10" x1="93.967" y1="183.573" x2="122.892" y2="218.045"/>
		<line fill="none" stroke="#C1D3E0" stroke-miterlimit="10" x1="98.174" y1="180.043" x2="127.099" y2="214.515"/>
		<line fill="none" stroke="#C1D3E0" stroke-miterlimit="10" x1="102.381" y1="176.513" x2="131.306" y2="210.985"/>
		<line fill="none" stroke="#C1D3E0" stroke-miterlimit="10" x1="106.587" y1="172.983" x2="135.513" y2="207.456"/>
		<line fill="none" stroke="#C1D3E0" stroke-miterlimit="10" x1="110.794" y1="169.453" x2="139.719" y2="203.925"/>
		<line fill="none" stroke="#C1D3E0" stroke-miterlimit="10" x1="115.001" y1="165.923" x2="143.926" y2="200.395"/>
		<line fill="none" stroke="#C1D3E0" stroke-miterlimit="10" x1="119.208" y1="162.393" x2="148.133" y2="196.865"/>
		<line fill="none" stroke="#C1D3E0" stroke-miterlimit="10" x1="123.415" y1="158.863" x2="152.34" y2="193.335"/>
		<line fill="none" stroke="#C1D3E0" stroke-miterlimit="10" x1="127.622" y1="155.333" x2="156.547" y2="189.805"/>
		<line fill="none" stroke="#C1D3E0" stroke-miterlimit="10" x1="131.829" y1="151.803" x2="160.754" y2="186.275"/>
		<line fill="none" stroke="#C1D3E0" stroke-miterlimit="10" x1="136.036" y1="148.272" x2="164.961" y2="182.746"/>
		<line fill="none" stroke="#C1D3E0" stroke-miterlimit="10" x1="140.242" y1="144.742" x2="169.168" y2="179.215"/>
		<line fill="none" stroke="#C1D3E0" stroke-miterlimit="10" x1="144.449" y1="141.212" x2="173.375" y2="175.685"/>
		<line fill="none" stroke="#C1D3E0" stroke-miterlimit="10" x1="148.656" y1="137.683" x2="177.582" y2="172.155"/>
		<line fill="none" stroke="#C1D3E0" stroke-miterlimit="10" x1="152.863" y1="134.153" x2="181.789" y2="168.626"/>
		<line fill="none" stroke="#C1D3E0" stroke-miterlimit="10" x1="157.07" y1="130.623" x2="185.996" y2="165.096"/>
		<line fill="none" stroke="#C1D3E0" stroke-miterlimit="10" x1="161.277" y1="127.092" x2="190.203" y2="161.565"/>
		<line fill="none" stroke="#C1D3E0" stroke-miterlimit="10" x1="165.484" y1="123.562" x2="194.41" y2="158.035"/>
		<line fill="none" stroke="#C1D3E0" stroke-miterlimit="10" x1="169.69" y1="120.032" x2="198.617" y2="154.505"/>
		<line fill="none" stroke="#C1D3E0" stroke-miterlimit="10" x1="173.897" y1="116.502" x2="202.823" y2="150.976"/>
		<line fill="none" stroke="#C1D3E0" stroke-miterlimit="10" x1="178.104" y1="112.972" x2="207.03" y2="147.445"/>
		<line fill="none" stroke="#C1D3E0" stroke-miterlimit="10" x1="182.312" y1="109.442" x2="211.237" y2="143.915"/>
		<line fill="none" stroke="#C1D3E0" stroke-miterlimit="10" x1="186.519" y1="105.912" x2="215.444" y2="140.385"/>
		<line fill="none" stroke="#C1D3E0" stroke-miterlimit="10" x1="190.725" y1="102.382" x2="219.651" y2="136.855"/>
		<line fill="none" stroke="#C1D3E0" stroke-miterlimit="10" x1="194.932" y1="98.853" x2="223.858" y2="133.326"/>
		<line fill="none" stroke="#C1D3E0" stroke-miterlimit="10" x1="199.139" y1="95.322" x2="228.065" y2="129.795"/>
		<line fill="none" stroke="#C1D3E0" stroke-miterlimit="10" x1="203.346" y1="91.792" x2="232.272" y2="126.266"/>
		<line fill="none" stroke="#C1D3E0" stroke-miterlimit="10" x1="207.553" y1="88.262" x2="236.479" y2="122.735"/>
		<line fill="none" stroke="#C1D3E0" stroke-miterlimit="10" x1="211.76" y1="84.732" x2="240.686" y2="119.206"/>
		<line fill="none" stroke="#C1D3E0" stroke-miterlimit="10" x1="215.966" y1="81.202" x2="244.893" y2="115.676"/>
		<line fill="none" stroke="#C1D3E0" stroke-miterlimit="10" x1="220.173" y1="77.672" x2="249.1" y2="112.146"/>
		<line fill="none" stroke="#C1D3E0" stroke-miterlimit="10" x1="224.38" y1="74.142" x2="253.307" y2="108.616"/>
		<line fill="none" stroke="#C1D3E0" stroke-miterlimit="10" x1="228.587" y1="70.612" x2="257.514" y2="105.085"/>
		<line fill="none" stroke="#C1D3E0" stroke-miterlimit="10" x1="232.794" y1="67.082" x2="261.721" y2="101.556"/>
		<line fill="none" stroke="#C1D3E0" stroke-miterlimit="10" x1="237.001" y1="63.552" x2="265.927" y2="98.026"/>
		<line fill="none" stroke="#C1D3E0" stroke-miterlimit="10" x1="241.208" y1="60.021" x2="270.134" y2="94.496"/>
		<line fill="none" stroke="#C1D3E0" stroke-miterlimit="10" x1="245.415" y1="56.492" x2="274.341" y2="90.966"/>
		<line fill="none" stroke="#C1D3E0" stroke-miterlimit="10" x1="249.621" y1="52.961" x2="278.548" y2="87.436"/>
		<line fill="none" stroke="#C1D3E0" stroke-miterlimit="10" x1="253.828" y1="49.432" x2="282.755" y2="83.906"/>
		<line fill="none" stroke="#C1D3E0" stroke-miterlimit="10" x1="258.035" y1="45.902" x2="286.962" y2="80.376"/>
		<line fill="none" stroke="#C1D3E0" stroke-miterlimit="10" x1="262.242" y1="42.372" x2="291.169" y2="76.846"/>
		<line fill="none" stroke="#C1D3E0" stroke-miterlimit="10" x1="266.449" y1="38.842" x2="295.376" y2="73.316"/>
		<line fill="none" stroke="#C1D3E0" stroke-miterlimit="10" x1="270.656" y1="35.312" x2="299.583" y2="69.786"/>
		<line fill="none" stroke="#C1D3E0" stroke-miterlimit="10" x1="274.862" y1="31.781" x2="303.79" y2="66.256"/>
		<line fill="none" stroke="#C1D3E0" stroke-miterlimit="10" x1="279.069" y1="28.251" x2="307.997" y2="62.726"/>
		<line fill="none" stroke="#C1D3E0" stroke-miterlimit="10" x1="283.276" y1="24.721" x2="312.204" y2="59.196"/>
		<line fill="none" stroke="#C1D3E0" stroke-miterlimit="10" x1="287.483" y1="21.191" x2="316.411" y2="55.666"/>
	</g>
	<g>
		<path fill="#FFFFFF" d="M303.232,39.961c3.536,4.213,2.982,10.553-1.232,14.088L106.941,217.723
			c-4.214,3.537-10.553,2.982-14.09-1.231l-2.57-3.065c-3.536-4.213-2.981-10.553,1.232-14.086L286.574,35.664
			c4.213-3.535,10.552-2.98,14.087,1.232L303.232,39.961z"/>
		<g>
			<path fill="#FFFFFF" d="M100.524,220.552c-3.125,0-6.062-1.363-8.056-3.74l-2.571-3.065c-1.795-2.14-2.65-4.861-2.405-7.663
				c0.245-2.802,1.559-5.333,3.699-7.128L286.253,35.281c1.879-1.577,4.271-2.445,6.736-2.445c3.125,0,6.062,1.363,8.055,3.739
				l2.571,3.064c1.796,2.14,2.65,4.861,2.405,7.663c-0.245,2.802-1.559,5.333-3.699,7.129L107.262,218.105
				C105.383,219.683,102.99,220.552,100.524,220.552z"/>
			<path fill="#3383B9" d="M292.989,33.336c2.859,0,5.701,1.211,7.672,3.56l2.571,3.064c3.536,4.213,2.982,10.553-1.232,14.088
				L106.941,217.723c-1.865,1.565-4.146,2.33-6.417,2.33c-2.859,0-5.702-1.212-7.673-3.561l-2.57-3.065
				c-3.536-4.213-2.981-10.553,1.232-14.086L286.574,35.664C288.438,34.1,290.719,33.336,292.989,33.336 M292.989,32.336
				L292.989,32.336c-2.583,0-5.089,0.91-7.058,2.562L90.871,198.574c-2.243,1.88-3.619,4.532-3.876,7.467
				c-0.257,2.935,0.638,5.785,2.52,8.028l2.57,3.065c2.09,2.49,5.166,3.918,8.439,3.918c2.583,0,5.09-0.911,7.06-2.563
				L302.642,54.815c2.243-1.881,3.62-4.534,3.876-7.469c0.256-2.935-0.639-5.786-2.521-8.028l-2.571-3.064
				C299.338,33.764,296.263,32.336,292.989,32.336L292.989,32.336z"/>
		</g>
	</g>
	<g>
		<defs>
			
				<rect id="SVGID_1_" x="83.614" y="197.429" transform="matrix(0.7661 -0.6428 0.6428 0.7661 -116.7205 109.1603)" width="15.977" height="34.999"/>
		</defs>
		<clipPath id="SVGID_2_">
			<use xlink:href="#SVGID_1_"  overflow="visible"/>
		</clipPath>
		<path clip-path="url(#SVGID_2_)" fill="#C133B1" d="M303.423,39.8c3.537,4.213,2.982,10.553-1.232,14.089L107.133,217.562
			c-4.215,3.536-10.553,2.982-14.09-1.232l-2.57-3.064c-3.536-4.214-2.981-10.553,1.233-14.087L286.766,35.504
			c4.213-3.536,10.553-2.981,14.087,1.232L303.423,39.8z"/>
	</g>
	<path fill="#3383B9" d="M39.57,258.591c3.243,3.864,2.448,9.919-1.766,13.452l-15.627,13.113
		c-4.212,3.537-10.313,3.268-13.555-0.598c-3.243-3.864-2.449-9.918,1.765-13.454l15.627-13.112
		C30.227,254.457,36.327,254.727,39.57,258.591z"/>
	<g>
		<path fill="#AFC8D9" d="M307.77,27.866l-1.067-1.271l2.596-2.179l-1.999-2.382l-2.596,2.178l-1.07-1.275l6.015-5.048l1.07,1.276
			l-2.357,1.978l1.999,2.382l2.357-1.978l1.067,1.271L307.77,27.866z"/>
		<path fill="#AFC8D9" d="M316.642,32.314c-0.997,0.836-1.968,1.23-2.918,1.186c-0.948-0.045-1.81-0.528-2.583-1.449
			c-0.773-0.922-1.1-1.855-0.98-2.797c0.122-0.943,0.682-1.834,1.683-2.674c1.002-0.841,1.974-1.234,2.917-1.183
			s1.804,0.54,2.579,1.465s1.102,1.854,0.98,2.792C318.199,30.59,317.64,31.477,316.642,32.314z M312.958,27.924
			c-0.672,0.564-1.071,1.116-1.198,1.656c-0.126,0.541,0.024,1.064,0.45,1.572c0.854,1.018,1.957,0.959,3.31-0.176
			c1.355-1.137,1.607-2.211,0.758-3.223c-0.426-0.508-0.917-0.748-1.475-0.719C314.244,27.064,313.63,27.359,312.958,27.924z"/>
		<path fill="#AFC8D9" d="M316.619,38.412l-1.07-1.275l4.954-4.157l-1.371-1.634l1.062-0.891l3.812,4.543l-1.062,0.891l-1.371-1.634
			L316.619,38.412z"/>
	</g>
	<g>
		<path fill="#AFC8D9" d="M75.219,214.66c-0.402-0.48-0.896-0.701-1.478-0.661c-0.581,0.04-1.195,0.329-1.839,0.87
			c-1.341,1.125-1.589,2.191-0.745,3.199c0.354,0.422,0.889,0.844,1.604,1.269l-1.07,0.897c-0.62-0.321-1.185-0.787-1.696-1.396
			c-0.734-0.874-1.03-1.767-0.889-2.676c0.142-0.909,0.709-1.78,1.703-2.614c0.625-0.523,1.268-0.869,1.93-1.037
			c0.662-0.167,1.296-0.143,1.905,0.074c0.609,0.215,1.154,0.609,1.635,1.184c0.49,0.584,0.842,1.289,1.055,2.116l-1.383,0.459
			c-0.081-0.315-0.178-0.62-0.29-0.914S75.403,214.879,75.219,214.66z"/>
		<path fill="#AFC8D9" d="M80.137,224.633c-0.997,0.836-1.968,1.23-2.918,1.187c-0.949-0.046-1.81-0.528-2.583-1.45
			s-1.1-1.854-0.979-2.797c0.121-0.943,0.682-1.834,1.683-2.674c1.002-0.84,1.974-1.234,2.917-1.183
			c0.944,0.053,1.803,0.54,2.579,1.465c0.776,0.925,1.103,1.854,0.981,2.792C81.695,222.908,81.135,223.795,80.137,224.633z
			 M76.454,220.242c-0.673,0.564-1.071,1.117-1.197,1.657c-0.127,0.54,0.023,1.064,0.449,1.572c0.854,1.018,1.957,0.958,3.31-0.177
			c1.354-1.137,1.607-2.211,0.758-3.223c-0.426-0.508-0.917-0.747-1.475-0.719C77.74,219.383,77.125,219.679,76.454,220.242z"/>
		<path fill="#AFC8D9" d="M78.167,228.41l6.016-5.047l1.07,1.275l-4.962,4.163l2.047,2.44l-1.054,0.883L78.167,228.41z"/>
		<path fill="#AFC8D9" d="M89.415,235.589c-0.991,0.831-1.985,1.187-2.985,1.063c-0.999-0.121-1.946-0.715-2.839-1.778l-1.429-1.704
			l6.016-5.047l1.584,1.889c0.824,0.982,1.204,1.963,1.142,2.939C90.841,233.93,90.344,234.81,89.415,235.589z M88.271,234.292
			c1.292-1.083,1.459-2.196,0.501-3.337l-0.57-0.68l-3.917,3.287l0.459,0.547C85.775,235.338,86.951,235.399,88.271,234.292z"/>
	</g>
</g>
</svg>
