<?xml version="1.0" encoding="utf-8"?>
<!-- Generator: Adobe Illustrator 16.0.3, SVG Export Plug-In . SVG Version: 6.00 Build 0)  -->
<!DOCTYPE svg PUBLIC "-//W3C//DTD SVG 1.1//EN" "http://www.w3.org/Graphics/SVG/1.1/DTD/svg11.dtd">
<svg version="1.1" id="Layer_1" xmlns="http://www.w3.org/2000/svg" xmlns:xlink="http://www.w3.org/1999/xlink" x="0px" y="0px"
	 width="35.35px" height="324.736px" viewBox="0 0 35.35 324.736" enable-background="new 0 0 35.35 324.736" xml:space="preserve">
<g>
	<path fill="#E6AFE0" d="M17.589,33.664c0,0,17.761-9.029,17.761-22.083C35.35,5.1,31.721,0,25.961,0
		c-6.679,0-8.372,5.884-8.372,5.884h0.093c0,0-1.618-5.884-8.295-5.884C3.627,0,0,5.1,0,11.581
		c0,13.054,17.683,22.083,17.683,22.083H17.589z"/>
	<g>
		<path fill="#C133B1" d="M17.633,25.04c0,0,8.66-4.402,8.66-10.769c0-3.161-1.769-5.646-4.577-5.646
			c-3.257,0-4.083,2.87-4.083,2.87h0.046c0,0-0.788-2.87-4.045-2.87c-2.808,0-4.577,2.485-4.577,5.646
			c0,6.366,8.621,10.769,8.621,10.769H17.633z"/>
	</g>
</g>
<g>
	<path fill="#E6AFE0" d="M34.465,84.913c0-8.366-6.779-15.146-15.146-15.146c-8.365,0-15.146,6.781-15.146,15.146
		c0,0.434,0,0.951-0.002,1.521l-3.097,5.334c-0.44,0.759-0.084,1.381,0.794,1.381h2.286c-0.009,2.97-0.017,5.689-0.017,6.564
		c0,2.688,2.468,3.586,5.687,3.586c1.176,0,2.404-0.007,3.619-0.015v6.021h14.169v-9.498C31.739,96.161,34.465,90.215,34.465,84.913
		z"/>
	<circle fill="#C133B1" cx="19.264" cy="84.231" r="9.442"/>
</g>
<g>
	<path fill="#E6AFE0" d="M24.283,180.744c-1.36-1.879-3.919-5.455-6.608-9.441c-2.689,3.986-5.25,7.562-6.611,9.441l-5.398-3.91
		c2.714-3.744,5.559-7.855,8.035-11.613c-2.812-4.482-5.142-8.684-5.561-10.879c-0.647-3.398,0.556-5.732,1.683-7.092
		c2.143-2.588,5.461-3.512,7.853-3.512c2.391,0,5.711,0.924,7.853,3.512c1.126,1.359,2.333,3.695,1.682,7.092
		c-0.418,2.197-2.745,6.398-5.56,10.879c2.476,3.758,5.322,7.869,8.034,11.613L24.283,180.744z M17.675,150.401
		c-0.878,0-2.128,0.387-2.716,1.098c-0.219,0.26-0.444,0.678-0.271,1.59c0.177,0.928,1.299,3.066,2.986,5.865
		c1.687-2.799,2.81-4.938,2.985-5.865c0.174-0.912-0.052-1.33-0.271-1.59C19.802,150.787,18.551,150.401,17.675,150.401z"/>
	<path fill="#C133B1" d="M21.649,165.219c2.476,3.758,5.322,7.869,8.034,11.615l-5.4,3.91c-1.36-1.881-3.919-5.457-6.608-9.441"/>
	<path fill="#FFFFFF" d="M17.675,158.953c1.687-2.799,2.81-4.938,2.985-5.865c0.174-0.912-0.052-1.33-0.271-1.59
		c-0.588-0.711-1.837-1.098-2.715-1.098s-2.128,0.387-2.716,1.098"/>
	<path fill="#C133B1" d="M14.688,153.088c0.177,0.928,1.299,3.066,2.986,5.865l-3.975,6.266c-2.812-4.482-5.142-8.682-5.561-10.877
		c-0.647-3.4,0.556-5.734,1.683-7.092c2.143-2.59,5.461-3.514,7.853-3.514c0,0-1.83,0.387-2.716,2.918
		S14.515,152.176,14.688,153.088z"/>
</g>
<g>
	<path fill="#E6AFE0" d="M30.028,312.383c0,6.822-5.531,12.354-12.355,12.354c-6.822,0-12.354-5.531-12.354-12.354
		s12.354-21.822,12.354-21.822S30.028,305.561,30.028,312.383z"/>
	<path fill="#C133B1" d="M23.242,312.199c0,3.076-2.494,5.568-5.569,5.568c-3.073,0-5.567-2.492-5.567-5.568
		c0-3.072,5.567-9.834,5.567-9.834S23.242,309.125,23.242,312.199z"/>
</g>
<g>
	<path fill="#E6AFE0" d="M31.091,253.721h-8v-21.627c0-2.895-2.355-5.25-5.25-5.25s-5.25,2.355-5.25,5.25h-8
		c0-7.306,5.944-13.25,13.25-13.25c7.306,0,13.25,5.944,13.25,13.25V253.721z"/>
</g>
<g>
	<path fill="#C133B1" d="M31.091,232.094h-8c0-2.895-2.355-5.25-5.25-5.25s-5.25,2.355-5.25,5.25h-8
		c0-7.306,5.944-13.25,13.25-13.25C25.146,218.844,31.091,224.788,31.091,232.094z"/>
</g>
</svg>
