<?xml version="1.0" encoding="utf-8"?>
<!-- Generator: Adobe Illustrator 16.0.3, SVG Export Plug-In . SVG Version: 6.00 Build 0)  -->
<!DOCTYPE svg PUBLIC "-//W3C//DTD SVG 1.1//EN" "http://www.w3.org/Graphics/SVG/1.1/DTD/svg11.dtd">
<svg version="1.1" id="Layer_1" xmlns="http://www.w3.org/2000/svg" xmlns:xlink="http://www.w3.org/1999/xlink" x="0px" y="0px"
	 width="30px" height="30px" viewBox="0 0 30 30" enable-background="new 0 0 30 30" xml:space="preserve">
<g>
	<g>
		<path fill="#FFFFFF" d="M10.424,3.295l-0.932-2.25L9.026,1.238l0.932,2.25C10.112,3.42,10.268,3.356,10.424,3.295z"/>
		<path fill="#FFFFFF" d="M6.295,5.939L4.571,4.215L4.215,4.571l1.724,1.725C6.056,6.175,6.174,6.056,6.295,5.939z"/>
		<path fill="#FFFFFF" d="M15,2.433c0.084,0,0.167,0.004,0.251,0.006V0h-0.504v2.439C14.832,2.437,14.915,2.433,15,2.433z"/>
		<path fill="#FFFFFF" d="M2.433,15c0-0.083,0.004-0.167,0.006-0.25H0v0.503h2.439C2.438,15.169,2.433,15.085,2.433,15z"/>
		<path fill="#FFFFFF" d="M26.705,10.426l2.25-0.932l-0.192-0.465L26.513,9.96C26.58,10.114,26.644,10.27,26.705,10.426z"/>
		<path fill="#FFFFFF" d="M20.042,3.488l0.932-2.249l-0.466-0.193l-0.932,2.25C19.733,3.357,19.888,3.42,20.042,3.488z"/>
		<path fill="#FFFFFF" d="M24.061,6.297l1.724-1.724l-0.356-0.356L23.705,5.94C23.826,6.057,23.945,6.176,24.061,6.297z"/>
		<path fill="#FFFFFF" d="M3.487,9.959l-2.25-0.932L1.044,9.492l2.251,0.933C3.356,10.268,3.42,10.113,3.487,9.959z"/>
		<path fill="#FFFFFF" d="M19.575,26.704l0.932,2.25l0.466-0.193l-0.932-2.249C19.887,26.58,19.732,26.643,19.575,26.704z"/>
		<path fill="#FFFFFF" d="M26.512,20.042l2.248,0.931l0.192-0.465l-2.249-0.932C26.643,19.732,26.579,19.888,26.512,20.042z"/>
		<path fill="#FFFFFF" d="M23.704,24.061l1.723,1.723l0.356-0.356l-1.723-1.723C23.944,23.825,23.825,23.944,23.704,24.061z"/>
		<path fill="#FFFFFF" d="M3.296,19.577l-2.25,0.932l0.193,0.465l2.25-0.932C3.421,19.89,3.357,19.734,3.296,19.577z"/>
		<path fill="#FFFFFF" d="M27.561,14.75c0.001,0.083,0.006,0.166,0.006,0.25c0,0.085-0.005,0.169-0.007,0.254H30V14.75H27.561z"/>
		<path fill="#FFFFFF" d="M15,27.567c-0.084,0-0.167-0.004-0.251-0.006V30h0.504v-2.439C15.168,27.562,15.084,27.567,15,27.567z"/>
		<path fill="#FFFFFF" d="M5.94,23.705L4.216,25.43l0.356,0.356l1.725-1.724C6.176,23.945,6.057,23.826,5.94,23.705z"/>
		<path fill="#FFFFFF" d="M9.959,26.513l-0.932,2.249l0.466,0.193l0.932-2.25C10.269,26.643,10.113,26.58,9.959,26.513z"/>
	</g>
	<g>
		<path fill="#FFFFFF" d="M10.835,7.703L7.536,1.988L7.463,2.03l3.299,5.714C10.786,7.73,10.811,7.717,10.835,7.703z"/>
		<path fill="#FFFFFF" d="M9.918,8.309L5.902,3.074L5.834,3.125l4.018,5.236C9.874,8.343,9.896,8.326,9.918,8.309z"/>
		<path fill="#FFFFFF" d="M9.088,9.029L4.422,4.363l-0.06,0.06l4.666,4.666C9.049,9.069,9.068,9.049,9.088,9.029z"/>
		<path fill="#FFFFFF" d="M11.823,7.22L9.298,1.125L9.221,1.158l2.524,6.093C11.771,7.24,11.797,7.231,11.823,7.22z"/>
		<path fill="#FFFFFF" d="M23.335,13.947l6.542-0.861l-0.011-0.083l-6.542,0.861C23.328,13.892,23.332,13.919,23.335,13.947z"/>
		<path fill="#FFFFFF" d="M13.945,6.665l-0.861-6.542L13,0.134l0.861,6.542C13.889,6.672,13.917,6.668,13.945,6.665z"/>
		<path fill="#FFFFFF" d="M8.36,9.853L3.125,5.835L3.073,5.901l5.235,4.018C8.326,9.896,8.343,9.875,8.36,9.853z"/>
		<path fill="#FFFFFF" d="M6.894,12.785l-6.374-1.708l-0.021,0.081l6.372,1.708C6.878,12.838,6.887,12.812,6.894,12.785z"/>
		<path fill="#FFFFFF" d="M6.676,13.862L0.132,13l-0.011,0.083l6.544,0.862C6.669,13.917,6.672,13.89,6.676,13.862z"/>
		<path fill="#FFFFFF" d="M7.251,11.745L1.156,9.221L1.124,9.298l6.096,2.525C7.231,11.797,7.24,11.771,7.251,11.745z"/>
		<path fill="#FFFFFF" d="M7.745,10.763l-5.715-3.3L1.987,7.536l5.715,3.299C7.716,10.812,7.73,10.787,7.745,10.763z"/>
		<path fill="#FFFFFF" d="M12.865,6.871L11.158,0.5l-0.082,0.022l1.708,6.372C12.812,6.887,12.838,6.878,12.865,6.871z"/>
		<path fill="#FFFFFF" d="M20.972,9.09l4.666-4.666l-0.06-0.06L20.913,9.03C20.932,9.05,20.952,9.07,20.972,9.09z"/>
		<path fill="#FFFFFF" d="M22.298,10.837l5.714-3.299L27.97,7.465l-5.714,3.299C22.271,10.788,22.284,10.812,22.298,10.837z"/>
		<path fill="#FFFFFF" d="M21.692,9.919l5.234-4.016l-0.051-0.067L21.64,9.854C21.658,9.875,21.675,9.897,21.692,9.919z"/>
		<path fill="#FFFFFF" d="M22.78,11.825L28.875,9.3l-0.032-0.078l-6.093,2.524C22.76,11.772,22.77,11.799,22.78,11.825z"/>
		<path fill="#FFFFFF" d="M23.129,12.867L29.5,11.16l-0.022-0.081l-6.372,1.707C23.114,12.813,23.122,12.84,23.129,12.867z"/>
		<path fill="#FFFFFF" d="M20.148,8.361l4.017-5.235l-0.067-0.051L20.082,8.31C20.104,8.326,20.126,8.344,20.148,8.361z"/>
		<path fill="#FFFFFF" d="M6.597,15c0-0.014,0.001-0.027,0.001-0.04H0v0.084h6.598C6.598,15.029,6.597,15.015,6.597,15z"/>
		<path fill="#FFFFFF" d="M16.139,6.676L17,0.134l-0.083-0.011l-0.861,6.542C16.083,6.669,16.111,6.672,16.139,6.676z"/>
		<path fill="#FFFFFF" d="M19.238,7.745l3.299-5.714l-0.073-0.042l-3.299,5.714C19.19,7.717,19.214,7.731,19.238,7.745z"/>
		<path fill="#FFFFFF" d="M18.255,7.251l2.524-6.093l-0.078-0.032l-2.524,6.095C18.203,7.231,18.229,7.241,18.255,7.251z"/>
		<path fill="#FFFFFF" d="M15,6.597c0.014,0,0.027,0.001,0.042,0.001V0h-0.084v6.598C14.972,6.598,14.985,6.597,15,6.597z"/>
		<path fill="#FFFFFF" d="M17.216,6.895l1.708-6.372L18.842,0.5l-1.707,6.371C17.162,6.878,17.189,6.887,17.216,6.895z"/>
		<path fill="#FFFFFF" d="M20.081,21.691l4.016,5.234l0.067-0.051l-4.017-5.235C20.125,21.656,20.104,21.674,20.081,21.691z"/>
		<path fill="#FFFFFF" d="M21.639,20.148l5.234,4.016l0.051-0.067l-5.233-4.016C21.674,20.104,21.656,20.125,21.639,20.148z"/>
		<path fill="#FFFFFF" d="M20.911,20.971l4.665,4.665l0.06-0.059l-4.665-4.665C20.951,20.931,20.931,20.951,20.911,20.971z"/>
		<path fill="#FFFFFF" d="M19.164,22.297l3.299,5.713l0.072-0.042l-3.298-5.713C19.213,22.269,19.188,22.283,19.164,22.297z"/>
		<path fill="#FFFFFF" d="M18.177,22.779l2.524,6.094l0.077-0.032l-2.523-6.092C18.229,22.759,18.203,22.769,18.177,22.779z"/>
		<path fill="#FFFFFF" d="M17.134,23.128l1.708,6.371l0.081-0.021l-1.708-6.372C17.188,23.113,17.161,23.121,17.134,23.128z"/>
		<path fill="#FFFFFF" d="M23.324,16.139l6.54,0.86l0.011-0.083l-6.541-0.861C23.331,16.083,23.328,16.111,23.324,16.139z"/>
		<path fill="#FFFFFF" d="M16.055,23.334l0.861,6.542L17,29.866l-0.861-6.542C16.111,23.327,16.083,23.331,16.055,23.334z"/>
		<path fill="#FFFFFF" d="M23.402,14.96c0,0.013,0.001,0.026,0.001,0.04c0,0.015-0.001,0.029-0.001,0.044H30V14.96H23.402z"/>
		<path fill="#FFFFFF" d="M22.749,18.255l6.092,2.523l0.032-0.078l-6.093-2.524C22.769,18.203,22.759,18.229,22.749,18.255z"/>
		<path fill="#FFFFFF" d="M23.105,17.215l6.371,1.707l0.022-0.081l-6.37-1.707C23.122,17.162,23.113,17.188,23.105,17.215z"/>
		<path fill="#FFFFFF" d="M22.255,19.238l5.712,3.298l0.042-0.073l-5.712-3.299C22.283,19.189,22.269,19.214,22.255,19.238z"/>
		<path fill="#FFFFFF" d="M11.746,22.749l-2.524,6.094l0.077,0.032l2.525-6.095C11.798,22.769,11.771,22.76,11.746,22.749z"/>
		<path fill="#FFFFFF" d="M7.704,19.166l-5.714,3.3l0.042,0.073l5.714-3.299C7.731,19.215,7.718,19.19,7.704,19.166z"/>
		<path fill="#FFFFFF" d="M9.03,20.912l-4.666,4.666l0.06,0.06l4.666-4.666C9.069,20.951,9.05,20.932,9.03,20.912z"/>
		<path fill="#FFFFFF" d="M8.31,20.083l-5.235,4.017l0.051,0.067l5.236-4.018C8.344,20.126,8.327,20.104,8.31,20.083z"/>
		<path fill="#FFFFFF" d="M7.221,18.178l-6.095,2.525l0.032,0.078l6.094-2.524C7.241,18.231,7.231,18.205,7.221,18.178z"/>
		<path fill="#FFFFFF" d="M15,23.403c-0.014,0-0.028-0.001-0.042-0.001V30h0.084v-6.599C15.028,23.401,15.014,23.403,15,23.403z"/>
		<path fill="#FFFFFF" d="M6.872,17.137L0.5,18.844l0.022,0.081l6.373-1.708C6.887,17.19,6.879,17.163,6.872,17.137z"/>
		<path fill="#FFFFFF" d="M12.785,23.105l-1.708,6.373l0.081,0.022l1.708-6.372C12.839,23.121,12.812,23.113,12.785,23.105z"/>
		<path fill="#FFFFFF" d="M13.862,23.324l-0.861,6.542l0.083,0.011l0.861-6.542C13.918,23.331,13.89,23.328,13.862,23.324z"/>
		<path fill="#FFFFFF" d="M10.763,22.256L7.464,27.97l0.073,0.042l3.299-5.714C10.812,22.284,10.788,22.27,10.763,22.256z"/>
		<path fill="#FFFFFF" d="M6.666,16.057l-6.542,0.861l0.011,0.083l6.542-0.861C6.672,16.112,6.669,16.084,6.666,16.057z"/>
		<path fill="#FFFFFF" d="M9.854,21.64l-4.018,5.236l0.067,0.051l4.017-5.235C9.897,21.675,9.875,21.657,9.854,21.64z"/>
	</g>
</g>
</svg>
